<?xml version="1.0" encoding="UTF-8" standalone="no"?>
<!-- Created with Inkscape (http://www.inkscape.org/) -->

<svg
   xmlns:dc="http://purl.org/dc/elements/1.1/"
   xmlns:cc="http://creativecommons.org/ns#"
   xmlns:rdf="http://www.w3.org/1999/02/22-rdf-syntax-ns#"
   xmlns:svg="http://www.w3.org/2000/svg"
   xmlns="http://www.w3.org/2000/svg"
   xmlns:sodipodi="http://sodipodi.sourceforge.net/DTD/sodipodi-0.dtd"
   xmlns:inkscape="http://www.inkscape.org/namespaces/inkscape"
   width="229.543"
   height="200"
   viewBox="0 0 60.733248 52.916673"
   version="1.1"
   id="svg29"
   sodipodi:docname="HasestadtHipHop_logo_white.svg"
   inkscape:version="0.92.4 (5da689c313, 2019-01-14)">
  <defs
     id="defs23" />
  <sodipodi:namedview
     id="base"
     pagecolor="#ffffff"
     bordercolor="#666666"
     borderopacity="1.0"
     inkscape:pageopacity="0.0"
     inkscape:pageshadow="2"
     inkscape:zoom="2.8284271"
     inkscape:cx="58.766708"
     inkscape:cy="108.96612"
     inkscape:document-units="px"
     inkscape:current-layer="layer1"
     showgrid="false"
     inkscape:pagecheckerboard="true"
     units="px"
     inkscape:window-width="1920"
     inkscape:window-height="1017"
     inkscape:window-x="1912"
     inkscape:window-y="-8"
     inkscape:window-maximized="1" />
  <metadata
     id="metadata26">
    <rdf:RDF>
      <cc:Work
         rdf:about="">
        <dc:format>image/svg+xml</dc:format>
        <dc:type
           rdf:resource="http://purl.org/dc/dcmitype/StillImage" />
        <dc:title></dc:title>
      </cc:Work>
    </rdf:RDF>
    <rdf:RDF>
      <cc:Work
         rdf:about="">
        <dc:title />
      </cc:Work>
    </rdf:RDF>
  </metadata>
  <g
     transform="matrix(1.066667,0,0,1.066667,0,-263.88316)"
     id="layer1"
     inkscape:groupmode="layer"
     inkscape:label="Ebene 1">
    <path
       style="opacity:1;fill:#ffffff;stroke-width:0.03525981"
       d="m 27.334971,296.96789 c -0.627736,-0.0402 -1.800384,-0.15979 -2.568622,-0.26201 -1.018067,-0.13547 -2.517329,-0.48295 -3.591632,-0.83243 -1.993177,-0.64841 -3.356205,-1.27137 -5.260362,-2.40421 -1.039487,-0.61842 -1.303883,-0.80659 -2.662116,-1.89464 -1.270963,-1.01814 -1.903097,-1.60368 -2.567332,-2.37809 -0.216238,-0.25211 -0.53498,-0.61704 -0.7083147,-0.81097 -0.5142052,-0.57531 -1.4715789,-1.88778 -1.9181267,-2.62959 -0.3705474,-0.61555 -0.9176247,-1.60706 -1.2191919,-2.20963 -0.4438159,-0.88678 -0.6815084,-1.48094 -1.1038364,-2.75927 -0.2210382,-0.66905 -0.4557082,-1.3434 -0.5214868,-1.49854 -0.086814,-0.20477 -0.1394837,-0.4136 -0.1921507,-0.76192 -0.039911,-0.2639 -0.1285426,-0.77165 -0.1969683,-1.12832 -0.3671215,-1.9135 -0.4589059,-4.76182 -0.2254127,-6.99524 0.1068889,-1.02238 0.6650943,-3.54806 1.0091821,-4.56614 l 0.1251328,-0.37023 0.027983,-1.60432 c 0.078044,-4.47464 0.02038,-7.52283 -0.1797753,-9.50252 -0.2033968,-2.01171 -0.4942193,-3.46408 -0.8805918,-4.39766 -0.3670565,-0.8869 -0.3245437,-1.21306 0.252277,-1.93541 0.3855432,-0.48283 0.6882195,-0.63984 1.2266711,-0.63629 0.4676178,0.003 0.8021088,0.17652 1.1004159,0.57064 0.1776418,0.2347 0.2636691,0.42296 0.4345892,0.95108 0.3500479,1.08161 0.5311886,2.02553 0.6698828,3.49072 0.2533278,2.67622 0.327342,3.84501 0.3578165,5.65039 0.013335,0.79026 0.033754,1.4365 0.045377,1.43607 0.011676,-4.1e-4 0.063847,-0.0612 0.1160573,-0.13503 0.05221,-0.0739 0.2724911,-0.36308 0.4895024,-0.64274 0.2170113,-0.27965 0.5182016,-0.6836 0.6693112,-0.89767 0.216322,-0.30647 0.419645,-0.52795 0.956151,-1.04152 1.100793,-1.05376 2.330204,-2.12332 3.079989,-2.67951 0.822777,-0.61035 2.156609,-1.44231 3.201455,-1.99685 0.825403,-0.43809 1.055616,-0.54338 2.102086,-0.96139 1.11565,-0.44566 1.34777,-0.52653 2.241143,-0.78079 1.034076,-0.2943 1.288272,-0.35606 2.30435,-0.55989 1.31664,-0.2641 2.137964,-0.34317 3.972822,-0.3824 2.024312,-0.0433 2.840769,10e-4 4.17736,0.22708 2.019606,0.34149 3.741793,0.79488 5.112672,1.346 1.062399,0.4271 2.588912,1.16415 3.525982,1.70245 0.877556,0.50411 2.384486,1.56447 3.263376,2.29626 0.396294,0.32998 1.506763,1.37069 1.836609,1.72124 0.495688,0.5268 1.613756,1.82515 1.912918,2.22137 0.505341,0.66929 1.458829,2.14726 1.944871,3.01471 0.59362,1.05943 1.191828,2.48307 1.667055,3.9673 0.324045,1.01205 0.438332,1.43895 0.62253,2.32535 0.07844,0.37748 0.154287,0.69628 0.168534,0.70843 0.105602,0.0901 1.376206,0.92785 1.512086,0.99699 0.347035,0.17661 0.815425,0.54931 1.380865,1.09876 1.087396,1.05664 1.552793,1.76402 1.809579,2.75046 0.07125,0.2737 0.08248,0.39977 0.08159,0.91676 -9.52e-4,0.56095 -0.0074,0.61864 -0.100109,0.89912 -0.334337,1.0112 -1.222683,1.99598 -2.160544,2.39508 -0.841741,0.35819 -1.442423,0.32768 -1.920356,-0.0975 -0.234618,-0.20874 -0.325847,-0.41773 -0.325705,-0.7461 0,-0.33093 0.04469,-0.43593 0.379384,-0.89448 0.296539,-0.40626 0.597461,-0.7264 0.876718,-0.93271 0.15849,-0.11702 0.200314,-0.17118 0.24118,-0.31199 0.06845,-0.23583 0.05563,-0.49676 -0.0329,-0.67031 -0.204254,-0.40037 -1.275527,-1.53882 -1.364393,-1.44996 -0.0092,0.009 -0.03268,0.49916 -0.05241,1.08901 -0.05888,1.76115 -0.116455,2.28725 -0.408722,3.73459 -0.251141,1.2437 -0.278447,1.35252 -0.617632,2.46181 -0.361248,1.18145 -0.814208,2.30048 -1.508327,3.72628 -0.376514,0.77341 -0.563764,1.0959 -1.248823,2.15085 -0.769151,1.18443 -1.058345,1.56609 -2.154037,2.8428 -0.97279,1.13349 -2.074895,2.15008 -3.504267,3.23234 -1.137944,0.8616 -2.313562,1.59239 -3.638939,2.26204 -0.88799,0.44865 -2.328001,1.05032 -3.406684,1.42339 -0.490918,0.16978 -2.175619,0.60588 -2.805114,0.72611 -0.520348,0.0994 -2.8242,0.38174 -3.467019,0.42489 -0.605093,0.0406 -1.731769,0.0397 -2.383598,-0.003 z m 2.753826,-0.31352 c 0.66586,-0.0508 2.011654,-0.19951 2.415297,-0.26695 0.849986,-0.14204 2.451283,-0.53787 3.349682,-0.82803 4.260235,-1.376 8.063762,-3.94566 10.931608,-7.38541 0.823331,-0.98753 1.616413,-2.10607 2.200032,-3.10287 0.377228,-0.64429 1.137031,-2.17705 1.433234,-2.8913 0.290449,-0.70036 0.96114,-2.70483 1.1031,-3.29679 0.357682,-1.49151 0.443973,-1.99088 0.584952,-3.38494 0.12711,-1.25698 0.166374,-1.99076 0.139125,-2.60042 -0.01548,-0.34655 -0.01168,-0.53771 0.01075,-0.53771 0.12236,0 0.91155,0.65614 1.251078,1.04017 0.598144,0.67653 0.761499,0.99679 0.72234,1.41611 -0.03402,0.36438 -0.132669,0.54266 -0.41742,0.7544 -0.27662,0.20569 -0.604684,0.57379 -0.903656,1.01393 -0.198598,0.29236 -0.200985,0.29891 -0.200985,0.55047 0,0.21905 0.01361,0.27517 0.09749,0.40191 0.120357,0.18187 0.381756,0.37584 0.582175,0.43201 0.210462,0.0589 0.461551,0.0247 0.911012,-0.12472 0.828707,-0.27529 1.33337,-0.68329 1.90429,-1.53952 0.454375,-0.68145 0.582672,-1.24492 0.469209,-2.06069 -0.137958,-0.99189 -0.569721,-1.73889 -1.636672,-2.83163 -0.603913,-0.61851 -0.936916,-0.89705 -1.463637,-1.2243 -0.203627,-0.12645 -0.555219,-0.35998 -0.781317,-0.51882 -0.226098,-0.15884 -0.491507,-0.33222 -0.589797,-0.38531 -0.274512,-0.14823 -0.334453,-0.26938 -0.48077,-0.9717 -0.220375,-1.05779 -0.719421,-2.662 -1.22304,-3.93152 -0.266236,-0.67112 -0.858647,-1.89918 -1.326566,-2.74992 -1.695761,-3.08317 -4.39499,-5.96727 -7.524795,-8.04018 -2.290794,-1.51723 -4.513565,-2.48671 -7.413719,-3.23355 -1.926892,-0.49621 -3.50975,-0.68549 -5.729719,-0.68516 -2.558825,3.8e-4 -4.253122,0.23824 -6.769883,0.95042 -2.992626,0.84684 -6.08541,2.47576 -8.306236,4.37479 -0.173134,0.14804 -0.716979,0.62847 -1.208545,1.06764 -0.491566,0.43915 -1.023108,0.90288 -1.181204,1.03049 -0.313447,0.25302 -0.59272,0.58277 -0.855136,1.00967 -0.09279,0.15097 -0.4637689,0.66321 -0.8243943,1.13834 -0.3606267,0.47512 -0.691859,0.91543 -0.7360714,0.97846 -0.04421,0.063 -0.092745,0.11464 -0.1078575,0.11464 -0.015112,0 -0.03735,-0.94011 -0.049424,-2.08914 -0.012074,-1.14903 -0.038478,-2.34301 -0.058672,-2.6533 -0.091086,-1.39931 -0.3670936,-4.10544 -0.4955713,-4.85887 -0.1404071,-0.82337 -0.4868621,-2.00618 -0.7121116,-2.43116 -0.2928048,-0.55245 -0.9433837,-0.82052 -1.4487774,-0.59697 -0.2238551,0.099 -0.3122614,0.17237 -0.5490676,0.45555 -0.3847484,0.46008 -0.466701,0.62944 -0.4682746,0.9677 -0.00109,0.23479 0.032932,0.34995 0.2406368,0.81457 0.2800261,0.62638 0.4459667,1.33597 0.6779273,2.89891 0.218358,1.47129 0.3204199,2.6701 0.3947513,4.63667 0.039884,1.05521 0.015285,6.00218 -0.037071,7.45745 l -0.027916,0.77572 -0.1603612,0.45837 c -0.1712637,0.48954 -0.434357,1.5016 -0.6370439,2.45056 -0.3652175,1.70991 -0.5174984,4.02194 -0.394803,5.99416 0.071569,1.15042 0.127176,1.64854 0.2863232,2.56515 0.068186,0.3927 0.147917,0.90837 0.1771801,1.14594 0.035997,0.29219 0.091723,0.54032 0.1722788,0.76691 0.065492,0.18423 0.2770594,0.78718 0.4701546,1.33987 0.6117361,1.75097 0.7574638,2.10493 1.3505859,3.28043 1.8613082,3.6889 4.6608638,6.81955 8.1419438,9.10486 1.82713,1.1995 3.232335,1.86695 5.694458,2.70474 0.791601,0.26938 1.283835,0.40618 2.289919,0.63649 1.042511,0.23866 1.496925,0.3045 3.739508,0.54176 0.256189,0.0271 2.458484,-0.009 2.979453,-0.0483 z m -3.4403,-0.98942 c -0.514906,-0.0373 -2.045385,-0.25081 -2.677276,-0.37348 -2.497892,-0.48488 -5.094109,-1.48759 -7.316411,-2.82573 -3.708255,-2.23291 -6.7475296,-5.51237 -8.5849377,-9.2634 -0.6478854,-1.32264 -1.3435179,-3.13911 -1.2192343,-3.18375 0.089693,-0.0322 0.455691,-0.27315 0.6057786,-0.39882 0.1978255,-0.16562 0.4552412,-0.50904 0.5390288,-0.71912 0.030941,-0.0776 0.078933,-0.24972 0.1066368,-0.38256 0.027717,-0.13285 0.055952,-0.24708 0.062746,-0.25388 0.00677,-0.007 0.1466923,0.0421 0.3108828,0.10867 0.3480086,0.14112 0.6039795,0.15846 0.8274259,0.056 0.1965238,-0.0901 0.6878453,-0.61336 0.8096661,-0.86236 0.328889,-0.67222 -0.03901,-1.65607 -0.7500957,-2.00597 -0.2095294,-0.10309 -0.2667261,-0.11543 -0.5349501,-0.1153 -0.483695,3.2e-4 -0.6911359,0.13229 -1.1682989,0.74338 -0.2411701,0.30886 -0.287804,0.42011 -0.306211,0.73052 -0.013945,0.23524 -0.024613,0.27207 -0.073307,0.25339 -0.2965173,-0.11384 -0.5893009,-0.10044 -0.9481868,0.0433 -0.1224658,0.049 -0.2278541,0.0832 -0.234187,0.076 -0.022132,-0.0253 -0.1936526,-1.14553 -0.2476636,-1.61749 -0.092228,-0.80594 -0.1253583,-1.4267 -0.1251461,-2.34478 3.172e-4,-1.31541 0.074355,-2.20953 0.2905479,-3.50835 0.08891,-0.53411 0.1166146,-0.64822 0.1241376,-0.51126 0.017753,0.32316 0.2193943,2.56694 0.2756689,3.0676 0.06597,0.58695 0.2039501,1.14644 0.4057932,1.6455 0.081042,0.20037 0.2083272,0.52168 0.2828589,0.71402 0.1577182,0.407 0.2268099,0.49297 0.4392317,0.54645 0.1927809,0.0486 0.3658757,-0.0119 0.4603415,-0.16158 0.03475,-0.0549 0.111984,-0.15837 0.1716287,-0.22982 0.1362634,-0.16324 0.3559019,-0.59931 0.3988352,-0.79186 0.022437,-0.10057 0.0073,-0.52287 -0.048456,-1.3575 -0.1098875,-1.64303 -0.1558566,-2.97199 -0.1812627,-5.23988 l -0.021428,-1.91287 h 1.0272801 1.0272802 l 0.01789,0.0793 c 0.0098,0.0437 0.08153,0.71402 0.159309,1.48973 0.07778,0.77572 0.195875,1.86163 0.26243,2.41315 0.100666,0.83414 0.114903,1.03575 0.08468,1.19884 -0.05185,0.27981 -0.02331,0.44317 0.139649,0.79924 0.384152,0.83939 0.414883,1.43374 0.372622,7.20688 -0.03994,5.45599 -0.03811,5.5813 0.09444,6.45032 0.182344,1.19552 0.399319,1.80536 1.001772,2.81566 0.340995,0.57184 0.519948,0.81043 0.710296,0.94701 0.194898,0.13985 0.545048,0.32499 0.697221,0.36866 0.134043,0.0385 0.315474,-0.0385 0.396619,-0.16824 0.03436,-0.0549 0.129206,-0.17992 0.210755,-0.2777 0.268071,-0.32139 0.324644,-0.70021 0.171315,-1.1471 -0.157738,-0.45973 -0.534419,-1.73169 -0.610078,-2.06005 -0.147273,-0.63919 -0.186051,-1.11012 -0.216313,-2.62686 -0.01605,-0.80481 -0.02029,-1.59565 -0.0094,-1.75743 0.01721,-0.25564 0.02946,-0.29802 0.09366,-0.3238 0.116283,-0.0467 2.216852,-0.28584 2.24409,-0.2555 0.01343,0.015 0.139249,0.45561 0.279607,0.97923 0.351319,1.31058 0.619234,2.20917 0.725874,2.4346 0.193185,0.40836 0.690186,0.65768 1.009741,0.50654 0.169511,-0.0801 0.615269,-0.69535 0.734628,-1.01383 0.186168,-0.49673 0.17741,-0.75126 -0.09167,-2.66398 -0.149016,-1.05924 -0.180942,-1.41564 -0.08508,-0.94979 0.116535,0.56634 0.598246,2.69882 0.648534,2.87101 0.05679,0.19445 0.152083,0.36014 0.380314,0.66124 l 0.116217,0.15333 -0.01008,0.53423 c -0.01008,0.53801 0.009,0.75673 0.183501,2.10331 0.121762,0.93947 0.105588,0.89193 0.611524,1.79825 0.382871,0.68587 0.420668,0.73954 0.562618,0.79885 0.205176,0.0857 0.370644,5.6e-4 0.666068,-0.34288 0.459069,-0.53365 0.575704,-0.84431 0.604699,-1.61062 0.01347,-0.35607 0.0019,-0.56557 -0.04863,-0.8815 -0.05371,-0.33574 -0.0663,-0.60629 -0.0663,-1.4252 0,-0.55596 0.009,-1.01985 0.0201,-1.03089 0.02618,-0.0261 0.337627,-0.0841 1.713646,-0.31864 1.238091,-0.21107 1.468914,-0.27261 1.803082,-0.48066 0.122319,-0.0762 0.232191,-0.13848 0.244147,-0.13848 0.01194,0 0.200863,0.0985 0.419795,0.21878 0.2799,0.15385 0.408914,0.24543 0.434629,0.30853 0.02011,0.0494 0.10876,0.41502 0.196996,0.81257 0.186403,0.83988 0.505056,2.11159 0.633467,2.52813 0.133475,0.43295 0.320131,0.61 0.643106,0.61 0.330819,0 0.661281,-0.32692 0.980169,-0.96966 0.36414,-0.73393 0.399828,-1.31795 0.163754,-2.67973 -0.07733,-0.44604 -0.135511,-0.81641 -0.129312,-0.82306 0.03821,-0.0409 0.289171,-0.1003 0.329223,-0.0779 0.02654,0.0149 0.230157,0.37435 0.452488,0.79893 0.441448,0.84304 0.926881,1.71176 1.23348,2.20741 0.219188,0.35434 0.401127,0.50162 0.669375,0.54185 0.331609,0.0498 0.574474,-0.0896 0.917913,-0.5267 0.108799,-0.13846 0.208355,-0.26395 0.221233,-0.27888 0.01287,-0.015 0.158683,0.0362 0.324013,0.11371 0.517961,0.24273 0.997454,0.30728 1.457479,0.1962 0.116362,-0.0281 0.223461,-0.0516 0.238005,-0.0524 0.01454,-7.1e-4 0.02676,0.40732 0.02715,0.90668 7.3e-4,0.9479 0.02358,1.21753 0.142266,1.6793 0.08261,0.32134 0.145735,0.45847 0.275364,0.5981 0.130957,0.14107 0.259423,0.19974 0.434971,0.19868 0.244726,-10e-4 0.391446,-0.095 0.662933,-0.4222 0.309771,-0.3734 0.389296,-0.53501 0.546576,-1.11068 0.201315,-0.73685 0.254783,-1.08225 0.423026,-2.73263 0.07585,-0.74407 0.06366,-0.70517 0.221029,-0.70534 0.372333,-3.9e-4 1.201291,-0.18704 1.929801,-0.43451 0.63913,-0.2171 2.243621,-0.87011 2.675937,-1.08907 0.183968,-0.0931 0.435696,-0.33181 0.75273,-0.71354 0.509046,-0.61293 0.662415,-1.12906 0.519151,-1.7471 -0.121722,-0.52511 -0.339509,-0.92126 -0.791536,-1.43979 -0.148963,-0.17088 -0.256163,-0.32585 -0.256163,-0.37031 0,-0.0617 0.684192,-1.39054 0.880427,-1.70991 0.04948,-0.0805 0.05529,-0.0748 0.287678,0.28219 0.290548,0.44635 0.45708,0.59528 0.782697,0.69998 0.241494,0.0776 0.518216,0.0832 0.808279,0.0163 0.07892,-0.0182 0.104567,0.007 0.244999,0.23688 0.339234,0.55627 0.802474,0.8793 1.296774,0.90427 0.355827,0.0179 0.545156,-0.0777 0.914058,-0.46236 0.313717,-0.32703 0.416227,-0.51347 0.471057,-0.85668 0.08551,-0.53525 -0.133191,-1.0873 -0.593155,-1.49725 -0.331576,-0.29554 -0.736969,-0.38841 -1.149318,-0.26332 -0.0952,0.0289 -0.192794,0.0525 -0.216876,0.0525 -0.02408,0 -0.115287,-0.14676 -0.202663,-0.32615 -0.187167,-0.38424 -0.411204,-0.6307 -0.694357,-0.76385 -0.163469,-0.0768 -0.239622,-0.0905 -0.484823,-0.0868 -0.159991,0.003 -0.290893,-0.004 -0.290893,-0.0147 0,-0.13618 1.504049,-2.60655 2.369953,-3.8926 l 0.419937,-0.62368 0.3416,0.15829 c 0.327602,0.15181 0.663026,0.32437 2.139851,1.10078 0.928729,0.48826 0.922936,0.4838 0.954123,0.73343 0.03026,0.24228 -0.008,2.24328 -0.05719,2.99241 -0.126221,1.92136 -0.610742,4.15921 -1.301996,6.01359 -1.301464,3.49133 -3.466893,6.64122 -6.236635,9.07198 -3.534369,3.10179 -7.969165,5.05259 -12.680685,5.57804 -0.612189,0.0683 -3.575977,0.10257 -4.304166,0.0498 z m 2.135687,-1.40959 v -1.02349 l -0.520082,0.009 -0.520081,0.009 -0.0098,0.52007 c -0.0061,0.32178 -0.02341,0.52009 -0.04552,0.52009 -0.01968,0 -0.292955,-0.24355 -0.607289,-0.54122 -0.314335,-0.29768 -0.603289,-0.55793 -0.642121,-0.57835 -0.09809,-0.0516 -0.973019,-0.16076 -1.006392,-0.12552 -0.04375,0.0462 -0.32521,1.95533 -0.292549,1.98442 0.04209,0.0376 1.068462,0.15527 1.098162,0.12605 0.01351,-0.0133 0.04836,-0.23774 0.07746,-0.4987 0.02908,-0.26097 0.0657,-0.47505 0.08137,-0.47573 0.01567,-6.6e-4 0.305424,0.24575 0.643901,0.54761 l 0.61541,0.54881 h 0.563749 0.563747 z m 1.551362,0.93971 c 0.04844,-0.0223 0.115859,-0.0995 0.149811,-0.17164 0.07024,-0.14916 0.04165,-0.14022 0.696495,-0.21792 0.646577,-0.0767 0.656479,-0.0759 0.811425,0.0641 0.123103,0.11118 0.143222,0.11769 0.286353,0.0922 0.827813,-0.14753 1.01781,-0.18912 1.01781,-0.22288 0,-0.0214 -0.379332,-0.41912 -0.842961,-0.88389 l -0.842962,-0.84505 -0.576245,0.0678 c -0.51763,0.0609 -0.585652,0.0768 -0.668703,0.15599 -0.06772,0.0646 -0.836062,1.37385 -1.186332,2.02148 -0.02338,0.0433 1.052366,-0.0133 1.155309,-0.0601 z m 0.458447,-0.88172 c 0,-0.0663 0.258676,-0.65331 0.281649,-0.6391 0.03613,0.0223 0.423547,0.52831 0.423547,0.55316 0,0.0106 -0.107101,0.0297 -0.238003,0.0426 -0.130904,0.0133 -0.289571,0.0328 -0.352598,0.044 -0.06302,0.0119 -0.114598,0.0106 -0.114598,-7.3e-4 z m -6.518395,0.32493 c 0.31882,-0.13617 0.441682,-0.36176 0.322868,-0.59283 -0.103425,-0.20113 -0.372865,-0.36799 -1.082982,-0.67064 -0.716444,-0.30535 -0.821617,-0.3674 -0.756285,-0.44612 0.101184,-0.12193 0.446855,-0.0208 0.679767,0.19868 0.177075,0.16694 0.1862,0.1707 0.634852,0.26129 0.594316,0.12008 0.588591,0.12021 0.561423,-0.0227 -0.0331,-0.17413 -0.105496,-0.29596 -0.23205,-0.39056 -0.235222,-0.17582 -1.518731,-0.58298 -1.932267,-0.61297 -0.491491,-0.0357 -0.825248,0.12897 -0.825248,0.40703 0,0.28661 0.329982,0.55029 1.168466,0.93373 0.535992,0.2451 0.558083,0.25933 0.568487,0.36578 0.01329,0.13598 -0.06462,0.17048 -0.30388,0.1346 -0.331166,-0.0496 -0.606069,-0.23293 -0.606069,-0.40407 0,-0.10044 -0.05697,-0.12737 -0.599417,-0.28237 -0.281197,-0.0804 -0.538166,-0.15402 -0.571041,-0.16364 -0.05098,-0.015 -0.05691,0.003 -0.04027,0.1165 0.0298,0.20469 0.142351,0.41593 0.295149,0.55397 0.337555,0.30496 1.192791,0.60964 1.973369,0.70301 0.217255,0.026 0.576815,-0.0168 0.745125,-0.0886 z m 10.079861,-0.1369 c 1.302755,-0.3557 1.916541,-0.60706 2.21773,-0.90825 0.271321,-0.27133 0.287127,-0.53674 0.04181,-0.70207 -0.09573,-0.0645 -0.1677,-0.0804 -0.363695,-0.0804 h -0.244352 l 0.126154,-0.14739 c 0.314557,-0.36749 0.04676,-0.71015 -0.50852,-0.65066 -0.106663,0.012 -0.503333,0.11716 -0.881495,0.23497 -0.378161,0.11782 -0.870035,0.26267 -1.093053,0.32193 -0.223019,0.0593 -0.423094,0.11795 -0.444614,0.13043 -0.02693,0.0157 0.03074,0.31371 0.185133,0.95702 0.246368,1.02651 0.245258,1.02253 0.285043,1.02253 0.01527,0 0.321214,-0.0801 0.679858,-0.17803 z m 0.281271,-0.74406 c -0.02124,-0.0844 -0.03629,-0.1692 -0.03346,-0.18859 0.006,-0.0409 0.643836,-0.22921 0.774499,-0.22863 0.04848,3.6e-4 0.122837,0.009 0.165233,0.0211 0.07394,0.0198 0.07487,0.0253 0.0229,0.13429 -0.04611,0.0967 -0.103373,0.13278 -0.384496,0.24234 -0.513856,0.20026 -0.4993,0.19974 -0.54468,0.0195 z m -0.207526,-0.70513 c -0.0213,-0.061 -0.0387,-0.1287 -0.0387,-0.15025 0,-0.0409 0.495402,-0.19708 0.625058,-0.19708 0.183705,0 0.237264,0.0836 0.120953,0.1889 -0.05066,0.0459 -0.594579,0.26948 -0.655431,0.26948 -0.0073,0 -0.03058,-0.05 -0.05188,-0.11106 z m -13.909971,0.31721 c 0.4626,-0.17033 0.673323,-0.71458 0.454231,-1.17318 -0.207766,-0.43489 -1.074444,-1.019 -1.951159,-1.31499 -0.309501,-0.10455 -0.440934,-0.12963 -0.749523,-0.14315 -0.452689,-0.0199 -0.587181,0.0174 -0.788107,0.2183 -0.733143,0.73315 0.459989,2.04075 2.22011,2.43311 0.383571,0.0856 0.53798,0.0817 0.814448,-0.02 z m -1.461527,-0.69779 c -0.22518,-0.0833 -0.460292,-0.25621 -0.574541,-0.42256 -0.168509,-0.24535 -0.04153,-0.64766 0.241788,-0.76604 0.239716,-0.10017 0.652178,0.0106 0.951125,0.25569 0.267887,0.21951 0.324588,0.44201 0.177981,0.6984 -0.162944,0.28495 -0.439655,0.36643 -0.796353,0.23451 z m 19.095767,0.40984 c 0.216083,-0.10601 0.413792,-0.20012 0.439351,-0.20905 0.03379,-0.0119 0,-0.11093 -0.124217,-0.36328 -0.157547,-0.32029 -0.166009,-0.35046 -0.109834,-0.39154 0.119454,-0.0873 0.35086,-0.0942 0.586716,-0.0175 0.432479,0.14077 0.652198,0.18418 0.747917,0.14779 0.127442,-0.0484 0.988427,-0.58692 1.04235,-0.6519 0.05404,-0.0652 0.06837,-0.0594 -0.396157,-0.15789 -0.189629,-0.0402 -0.456636,-0.0731 -0.593353,-0.0731 h -0.248571 l 0.12695,-0.14831 c 0.139879,-0.16343 0.23361,-0.4223 0.205723,-0.56819 -0.02475,-0.12949 -0.209275,-0.30056 -0.353272,-0.32758 -0.281479,-0.0528 -0.41827,-0.003 -1.602326,0.59047 -0.633822,0.31736 -1.153465,0.5954 -1.154757,0.61786 -0.0019,0.0329 0.738728,1.72573 0.79453,1.81602 0.01928,0.0312 0.13643,-0.0172 0.638953,-0.26381 z m -0.144374,-1.46081 -0.08721,-0.1721 0.297519,-0.14755 c 0.431601,-0.21406 0.666357,-0.20119 0.542772,0.0297 -0.03748,0.07 -0.220361,0.20385 -0.500157,0.36599 l -0.165718,0.0961 z m -8.413939,0.97714 c 0.319984,-0.02 0.83988,-0.0685 1.155328,-0.1076 0.667841,-0.0828 2.255899,-0.39752 2.91718,-0.57809 2.769021,-0.75609 5.300268,-2.08421 7.565178,-3.9694 0.569044,-0.47365 1.893568,-1.79772 2.359202,-2.35839 1.521485,-1.83204 2.67581,-3.86772 3.404609,-6.00409 0.123872,-0.36313 0.176173,-0.56252 0.151526,-0.57775 -0.05671,-0.035 -0.962081,-0.39627 -0.971197,-0.38749 -0.0044,0.004 -0.13301,0.35579 -0.285906,0.78131 -0.341151,0.94944 -0.472846,1.2692 -0.783333,1.90199 -0.605697,1.23445 -1.449379,2.52386 -2.399402,3.66703 -0.377949,0.45478 -1.639827,1.71664 -2.094496,2.09447 -2.117125,1.75929 -4.415443,2.98893 -6.952204,3.71956 -1.195176,0.34422 -1.976642,0.49132 -3.414179,0.64267 -0.769028,0.0809 -1.078685,0.0967 -1.921658,0.0977 -1.112425,10e-4 -1.523272,-0.0299 -2.767895,-0.20915 -1.279362,-0.18431 -2.260672,-0.43062 -3.516401,-0.88265 -1.215386,-0.4375 -2.129139,-0.8591 -3.196903,-1.47499 -1.549675,-0.89387 -2.394234,-1.54118 -3.753499,-2.87684 l -0.807364,-0.79335 0.02627,0.19393 c 0.05624,0.41519 0.336679,1.39971 0.564271,1.98092 0.0239,0.061 0.743445,0.67363 1.304518,1.11062 1.61797,1.26014 3.680664,2.3393 5.746234,3.00632 0.745571,0.24075 2.310894,0.64749 2.927679,0.76073 1.307675,0.24009 3.321461,0.3516 4.742444,0.2626 z m 12.005964,-1.71522 c 0.610376,-0.18852 1.563712,-0.9793 1.811945,-1.50299 0.137186,-0.28942 0.190933,-0.50282 0.163482,-0.64916 -0.02672,-0.14246 -0.144258,-0.27739 -0.655387,-0.75242 -0.283021,-0.26302 -0.399614,-0.35033 -0.446114,-0.3341 -0.03462,0.0119 -0.219306,0.16957 -0.410407,0.34995 l -0.347458,0.32795 0.412773,0.47263 c 0.430822,0.49328 0.493453,0.59248 0.459503,0.72776 -0.05347,0.21301 -0.513366,0.57345 -0.731688,0.57345 -0.146462,0 -0.201766,-0.0552 -0.662137,-0.66023 -0.164839,-0.21665 -0.313515,-0.39474 -0.330395,-0.39573 -0.02752,-10e-4 -0.621775,0.41897 -0.826126,0.5847 l -0.0811,0.0658 0.371415,0.5349 c 0.204278,0.29419 0.41589,0.56656 0.470244,0.60527 0.21147,0.15058 0.435722,0.1652 0.801444,0.0523 z m -0.572929,-2.24841 c -0.03295,-0.0398 -0.0904,-0.10761 -0.127667,-0.15058 l -0.06779,-0.0783 -0.232853,0.18209 c -0.128065,0.10017 -0.239019,0.1865 -0.246554,0.19187 -0.0076,0.005 0.03988,0.0796 0.105376,0.1649 l 0.119083,0.15512 0.255147,-0.19641 c 0.248088,-0.19097 0.253485,-0.19839 0.195258,-0.26871 z m 0.802118,-0.58398 c 0,-0.0133 -0.05199,-0.0832 -0.115513,-0.15673 l -0.1155,-0.13363 -0.237092,0.2024 c -0.1304,0.11132 -0.23709,0.20843 -0.23709,0.21579 0,0.008 0.05708,0.0766 0.126831,0.15379 l 0.126831,0.14039 0.225765,-0.19943 c 0.124164,-0.10973 0.225761,-0.20985 0.225761,-0.22258 z m 2.793529,-0.0348 c 0.331759,-0.0966 1.021807,-0.68825 1.336808,-1.1461 0.185075,-0.26901 0.367926,-0.65862 0.438636,-0.93461 0.04389,-0.17136 0.04738,-0.25109 0.01712,-0.39221 -0.07836,-0.36541 -0.0709,-0.36608 -0.483432,0.0442 l -0.368014,0.36595 0.02327,0.22113 c 0.02132,0.20262 0.0151,0.2336 -0.07438,0.37023 -0.164577,0.2513 -0.372614,0.48408 -0.484223,0.54178 -0.135167,0.0699 -0.267681,0.0439 -0.463563,-0.0909 -0.189786,-0.13056 -0.283225,-0.31305 -0.250264,-0.48875 0.07197,-0.38362 0.378367,-0.68569 0.811315,-0.79981 0.03476,-0.009 0.511266,-0.83243 0.511266,-0.88332 0,-0.0447 -0.325475,0.009 -0.54159,0.0906 -0.401916,0.15036 -1.173009,0.99846 -1.488838,1.6375 -0.17357,0.35118 -0.219599,0.64474 -0.142474,0.90867 0.147537,0.50494 0.595238,0.71968 1.158373,0.55566 z m 2.86567,-3.42683 c 0.174536,-0.29354 0.322359,-0.54624 0.328498,-0.56153 0.0061,-0.0153 -0.06845,-0.0682 -0.16575,-0.11743 -0.140866,-0.0714 -0.183721,-0.11437 -0.210355,-0.2108 -0.04215,-0.15264 9.51e-4,-0.53556 0.06772,-0.60181 0.02772,-0.0275 0.217003,-0.10774 0.420628,-0.17822 0.495687,-0.17167 0.575462,-0.23777 0.76006,-0.62986 0.230399,-0.48936 0.438904,-1.00824 0.405146,-1.00824 -0.01661,0 -0.399602,0.18218 -0.851077,0.40482 -0.451477,0.22265 -0.825791,0.39989 -0.831813,0.39388 -0.006,-0.007 -0.04323,-0.33414 -0.08269,-0.72913 -0.03946,-0.395 -0.07819,-0.72463 -0.08608,-0.73251 -0.01781,-0.0178 -0.277541,0.49701 -0.496173,0.98346 l -0.164233,0.36542 0.03954,0.52971 c 0.02175,0.29135 0.04785,0.60648 0.05801,0.70029 0.01022,0.0938 0.0058,0.16329 -0.0096,0.15441 -0.520921,-0.29986 -0.621062,-0.34639 -0.649747,-0.30188 -0.0168,0.026 -0.151898,0.25057 -0.300208,0.49886 -0.207913,0.34807 -0.260087,0.46102 -0.227857,0.49325 0.04585,0.0459 1.63253,1.0771 1.661012,1.07956 0.0097,8.4e-4 0.160433,-0.23865 0.334969,-0.53218 z m -36.364167,-2.89355 c 0.01522,-1.34152 -0.0025,-1.54434 -0.175666,-2.00343 -0.144125,-0.38225 -0.177723,-0.48331 -0.4475,-1.34625 -0.08943,-0.28605 -0.175836,-0.52009 -0.192023,-0.52009 -0.01619,0 -0.12171,0.11503 -0.23449,0.25564 -0.2606145,0.32488 -0.4062612,0.45999 -0.5806563,0.53864 -0.076438,0.0345 -0.1389821,0.0807 -0.1389821,0.10282 0,0.17542 0.5199888,1.60104 0.8670144,2.37705 0.31379,0.70169 0.787591,1.59175 0.847328,1.59175 0.03342,0 0.04632,-0.23369 0.05497,-0.99609 z M 9.8638641,274.8247 c -0.043573,-0.54685 -0.052449,-0.96041 -0.037005,-1.72429 0.027266,-1.34814 0.1061459,-1.98668 0.4333669,-3.50836 0.15584,-0.72468 0.158736,-0.74983 0.136082,-1.18119 -0.03646,-0.69421 -0.207984,-2.30242 -0.24694,-2.31531 -0.03486,-0.0119 -0.2737799,0.571 -0.4723895,1.15173 -0.4212055,1.23159 -0.5183556,1.56494 -0.5863593,2.01204 -0.027837,0.183 -0.090595,0.45967 -0.1394664,0.61481 -0.048867,0.15515 -0.1046333,0.44075 -0.1239121,0.63468 -0.019292,0.19393 -0.053471,0.50659 -0.075974,0.69479 -0.045523,0.38085 -0.024188,1.08634 0.058871,1.94628 0.076956,0.79674 0.070428,0.95421 -0.053537,1.2904 -0.1092904,0.29641 -0.1292857,0.46246 -0.073413,0.60945 0.028023,0.0736 0.069194,0.091 0.3060398,0.12923 0.2014981,0.0325 0.3580116,0.0882 0.593491,0.21156 0.1759023,0.0921 0.3240156,0.16428 0.3291412,0.16046 0.00517,-0.004 -0.016479,-0.33067 -0.048005,-0.72633 z m 38.0802839,0.48933 c 0.01247,-0.0625 0.03973,-0.43135 0.06052,-0.81979 0.0795,-1.48509 -0.0758,-3.9678 -0.248201,-3.9678 -0.04368,0 -0.887161,1.28736 -0.891833,1.36116 -0.0024,0.0368 0.01721,0.42854 0.04343,0.87058 0.04235,0.71415 0.04107,0.90019 -0.01154,1.66947 -0.03256,0.47617 -0.05159,0.87808 -0.04229,0.89314 0.0093,0.0151 0.09259,0.0133 0.185068,-0.005 0.185432,-0.0354 0.449369,-0.0106 0.642342,0.0605 0.1979,0.073 0.237324,0.0636 0.262513,-0.0625 z M 13.64212,289.0281 c -0.478847,-0.25972 -0.718252,-0.57027 -1.248988,-1.62019 -0.415704,-0.82236 -0.508618,-1.09505 -0.639091,-1.87557 -0.176745,-1.05735 -0.182845,-1.24975 -0.143207,-4.51611 0.04657,-3.83793 0.04684,-6.62758 6.89e-4,-7.3971 -0.06777,-1.13009 -0.08792,-1.25695 -0.29865,-1.8811 l -0.193326,-0.57259 0.0028,-0.53987 c 0.0021,-0.40958 -0.01486,-0.63265 -0.07052,-0.92425 -0.04035,-0.21141 -0.136775,-1.02856 -0.214294,-1.81588 -0.07751,-0.78733 -0.164907,-1.6577 -0.194198,-1.93414 -0.0293,-0.27644 -0.05326,-0.51842 -0.05326,-0.53771 0,-0.0226 -0.440086,-0.035 -1.2371046,-0.035 H 8.1159128 l 0.015471,2.51226 c 0.015192,2.46719 0.030769,2.90092 0.1744269,4.85704 0.024918,0.33938 0.045231,0.81539 0.045125,1.0578 -1.765e-4,0.40879 -0.00703,0.45352 -0.093674,0.61704 -0.051414,0.097 -0.1440161,0.2239 -0.2057797,0.28208 -0.061764,0.0581 -0.1427702,0.16503 -0.1800155,0.23744 -0.078654,0.15293 -0.192956,0.19596 -0.3370305,0.12684 -0.079145,-0.0379 -0.129697,-0.1218 -0.2513906,-0.41747 -0.4312324,-1.04746 -0.6525837,-1.92317 -0.7138591,-2.82413 -0.020314,-0.29862 -0.075324,-0.97136 -0.1222668,-1.49496 -0.04693,-0.52361 -0.1021256,-1.31695 -0.1226516,-1.76299 -0.061525,-1.33682 -0.097163,-4.58558 -0.068477,-6.24098 0.039035,-2.25198 0.037615,-4.72967 -0.00318,-5.50054 -0.08834,-1.67096 -0.2967972,-3.62678 -0.4970653,-4.66362 -0.2427225,-1.25664 -0.4099341,-1.90155 -0.6044398,-2.33122 -0.1742279,-0.38488 -0.1849593,-0.42515 -0.1849593,-0.69403 0,-0.32346 0.032428,-0.39065 0.4126183,-0.85493 0.2546361,-0.31095 0.4725682,-0.43017 0.7843227,-0.42904 0.4117147,0.001 0.6507951,0.18652 0.8873904,0.68679 0.280789,0.59371 0.6105552,1.85575 0.7508827,2.87367 0.091763,0.66568 0.3092587,3.03982 0.3569249,3.89621 0.020513,0.36847 0.046824,2.27696 0.058473,4.24108 0.011676,1.96414 0.033489,3.57875 0.048509,3.58804 0.04896,0.0302 2.0768185,0.1349 2.1031925,0.10854 0.05516,-0.0552 0.01802,-2.1673 -0.05865,-3.33624 -0.04262,-0.64966 -0.06768,-1.26053 -0.05571,-1.3575 0.03134,-0.2538 0.171817,-0.49892 0.506821,-0.88434 0.386377,-0.44452 0.537744,-0.50639 0.943796,-0.38581 0.358922,0.10654 0.615058,0.4443 0.756534,0.99746 0.05972,0.2335 0.06812,0.39391 0.06812,1.30086 0,0.56898 0.01327,1.03453 0.02948,1.03453 0.01621,0 0.0706,-0.0953 0.120847,-0.21172 0.06235,-0.14451 0.125279,-0.2312 0.198193,-0.27305 0.06627,-0.0381 0.128065,-0.11689 0.16276,-0.20774 0.07569,-0.1982 0.185668,-0.24095 0.543068,-0.21115 0.326574,0.0272 0.599797,0.10296 0.805067,0.22297 0.289645,0.16942 0.424339,0.37174 0.942929,1.41629 0.271054,0.54596 0.503252,0.98858 0.515996,0.98358 0.01274,-0.005 0.186785,-0.20741 0.386762,-0.44984 0.599266,-0.72642 1.053187,-1.11586 1.61913,-1.38909 0.274875,-0.13271 0.323282,-0.1447 0.584232,-0.1447 0.242802,0 0.302728,0.0119 0.408667,0.0849 0.15619,0.10695 0.272347,0.2748 0.319994,0.46252 0.03167,0.12472 0.04765,0.14264 0.111321,0.12433 0.308429,-0.0885 0.741842,-0.17229 1.361317,-0.26325 0.397553,-0.0584 1.2623,-0.18753 1.921659,-0.28703 1.388818,-0.20957 1.791802,-0.22975 2.170509,-0.10866 0.270956,0.0866 0.385004,0.19269 0.408861,0.38032 0.01418,0.11145 -0.0056,0.17317 -0.110737,0.34614 -0.355105,0.58388 -0.786908,0.91256 -1.551221,1.18075 -0.174175,0.0612 -0.767273,0.22868 -1.317997,0.37237 -0.550722,0.14369 -1.009736,0.26968 -1.020032,0.27998 -0.03663,0.0366 0.06647,0.40347 0.10929,0.38881 0.02309,-0.008 0.44658,-0.11928 0.941099,-0.24763 1.312741,-0.34056 1.965689,-0.53652 2.19547,-0.65887 0.134016,-0.0714 0.356301,-0.26026 0.652306,-0.55431 0.583218,-0.57938 0.926982,-0.76595 1.530375,-0.83056 0.416262,-0.0446 0.585576,0.10004 0.620075,0.52989 0.02967,0.36956 -0.05155,0.56561 -0.383301,0.92541 -0.344053,0.37313 -0.505806,0.57219 -0.464945,0.57219 0.01678,0 0.292578,-0.0779 0.612883,-0.17294 0.65676,-0.19501 1.279565,-0.34017 1.618564,-0.37721 l 0.22859,-0.0249 -0.120741,-0.0916 c -0.233563,-0.17696 -0.612726,-0.55206 -0.764654,-0.75647 -0.139274,-0.1874 -0.153568,-0.2254 -0.153568,-0.40833 0,-0.25603 0.08204,-0.42094 0.400428,-0.80497 0.318854,-0.38461 0.48659,-0.48412 0.816036,-0.48412 0.137129,0 0.301111,0.0228 0.368983,0.0515 0.06719,0.0283 0.461788,0.31909 0.876881,0.64616 0.415094,0.32708 0.789492,0.61051 0.831997,0.62988 0.05764,0.0263 0.132456,0.0166 0.294394,-0.0379 0.257375,-0.0866 0.392465,-0.0912 0.628784,-0.0211 0.320994,0.0953 0.581539,0.39049 0.633933,0.71813 0.01247,0.0781 0.05655,0.17319 0.09789,0.21128 0.09099,0.0839 0.883829,0.30061 1.009291,0.27601 0.04864,-0.009 0.153346,-0.0358 0.232685,-0.0585 0.283698,-0.0809 0.38376,-0.0226 1.001507,0.58472 0.335162,0.32946 0.588849,0.61002 0.643135,0.71124 0.05121,0.0955 0.129246,0.35823 0.181991,0.61278 0.05079,0.2451 0.154989,0.66557 0.231556,0.93439 0.15944,0.55977 0.650002,2.09666 0.694769,2.17665 0.02444,0.0437 0.116999,-0.004 0.505643,-0.25732 0.261648,-0.17094 0.5111,-0.34921 0.554336,-0.39618 0.04324,-0.047 0.134252,-0.19971 0.202255,-0.33944 0.068,-0.13973 0.163527,-0.31724 0.212281,-0.39446 0.113271,-0.17946 0.111506,-0.23786 -0.01884,-0.62004 -0.212864,-0.62414 -0.205692,-0.81194 0.03849,-1.00818 0.07673,-0.0617 0.139498,-0.13201 0.139498,-0.15639 0,-0.0758 0.169283,-0.24985 0.290182,-0.29852 0.30091,-0.12114 0.301432,-0.0989 -0.01247,-0.53507 -0.371974,-0.51703 -0.545755,-0.81452 -0.658336,-1.12698 -0.08115,-0.2252 -0.09298,-0.31302 -0.09411,-0.69834 -0.002,-0.6695 0.105204,-0.92115 0.645437,-1.51538 0.318618,-0.35047 0.463516,-0.4303 0.819545,-0.45157 0.491109,-0.0293 0.88124,0.15705 1.054659,0.50392 0.07355,0.14711 0.08782,0.2253 0.08689,0.47575 -0.0013,0.33585 -0.07459,0.54883 -0.262767,0.76315 -0.05834,0.0665 -0.106067,0.13453 -0.106067,0.15128 0,0.12274 0.577746,0.82201 1.080111,1.30726 0.440955,0.42593 0.513157,0.47933 2.355625,1.74193 1.973044,1.35209 2.40192,1.634 3.033709,1.99408 l 0.563427,0.32114 0.07731,-0.22921 c 0.154826,-0.45899 0.454412,-0.91371 0.911418,-1.38338 0.193354,-0.19871 0.28119,-0.26269 0.405487,-0.29536 0.34542,-0.0907 0.75235,0.0366 1.091923,0.34198 0.249131,0.22399 0.358116,0.42284 0.379313,0.69211 0.0237,0.30097 -0.04824,0.48676 -0.489832,1.26504 -0.200396,0.35318 -0.369128,0.65345 -0.374959,0.66726 -0.02061,0.0488 0.608768,0.3978 1.927963,1.06908 1.002726,0.51025 1.425487,0.74529 1.700718,0.94553 0.201454,0.14658 0.524948,0.36506 0.718877,0.48553 0.590697,0.36694 1.138444,0.84711 1.789965,1.56913 0.574794,0.63699 0.903792,1.20478 1.088762,1.879 0.152111,0.55444 0.143405,1.27078 -0.02119,1.74437 -0.163014,0.46903 -0.759927,1.27079 -1.185894,1.59286 -0.463529,0.35049 -1.266476,0.65424 -1.596018,0.60379 -0.204535,-0.0313 -0.48156,-0.19147 -0.576956,-0.33352 -0.131448,-0.19574 -0.11144,-0.40306 0.06535,-0.67689 0.284166,-0.44016 0.568051,-0.77263 0.8246,-0.96571 0.140623,-0.10588 0.295711,-0.24001 0.34464,-0.29815 0.145359,-0.17276 0.218375,-0.43849 0.218579,-0.79549 0,-0.28183 -0.01194,-0.34297 -0.108706,-0.54653 -0.128914,-0.27133 -0.645395,-0.91515 -0.987871,-1.23142 -0.726164,-0.67059 -1.816215,-1.32488 -4.276954,-2.56714 -0.678162,-0.34236 -1.245094,-0.60774 -1.285714,-0.60184 -0.09366,0.0137 -0.229933,0.19348 -0.862828,1.13887 -0.869754,1.2992 -1.471085,2.32907 -3.174049,5.436 -0.570511,1.04085 -1.027584,1.91385 -1.027584,1.96266 0,0.06 0.09528,0.19666 0.299874,0.43024 0.58477,0.66755 0.805733,1.14877 0.808956,1.76178 0.0021,0.41092 -0.0488,0.5796 -0.282636,0.93538 -0.441845,0.67229 -0.848446,0.96513 -1.962385,1.41336 -1.64,0.6599 -2.474212,0.91055 -3.271285,0.98291 -0.267107,0.0243 -0.459404,0.0582 -0.488097,0.0864 -0.03106,0.0305 -0.08244,0.36017 -0.149372,0.95864 -0.160125,1.43177 -0.271087,2.1983 -0.36527,2.5233 -0.144477,0.49856 -0.260704,0.77151 -0.388989,0.9135 -0.06706,0.0742 -0.161504,0.19765 -0.209868,0.27426 -0.118896,0.18836 -0.218942,0.25114 -0.400179,0.25114 -0.285697,0 -0.401692,-0.11649 -0.519251,-0.52146 -0.11351,-0.39102 -0.134841,-0.63035 -0.155217,-1.74112 -0.01168,-0.63354 -0.02975,-1.16048 -0.04027,-1.17096 -0.01048,-0.0106 -0.12159,0.0133 -0.246818,0.0517 -0.30379,0.0946 -0.699374,0.12154 -1.010911,0.069 -0.244914,-0.0413 -0.655646,-0.21139 -0.857372,-0.35503 -0.05391,-0.0383 -0.106876,-0.0698 -0.117729,-0.0698 -0.01088,0 -0.137357,0.15471 -0.281145,0.34378 -0.143787,0.18909 -0.299069,0.37842 -0.345071,0.42078 -0.264768,0.24369 -0.682398,0.18448 -0.88779,-0.12592 -0.129339,-0.19544 -1.458065,-2.5909 -1.658269,-2.98956 -0.09544,-0.19005 -0.18986,-0.33217 -0.228915,-0.34456 -0.03694,-0.0119 -0.195877,0.0283 -0.357749,0.0901 l -0.291273,0.11119 0.02104,0.14518 c 0.01154,0.0799 0.06792,0.46252 0.125199,0.85037 0.202527,1.37114 0.207931,1.70037 0.03628,2.20992 -0.161744,0.48013 -0.480199,0.98121 -0.7143,1.12397 -0.210499,0.1283 -0.500393,0.061 -0.604514,-0.14026 -0.11274,-0.21802 -0.447869,-1.5268 -0.798932,-3.12011 -0.128503,-0.58323 -0.184519,-0.68669 -0.407978,-0.75366 -0.208957,-0.0626 -0.456443,-0.23636 -0.560368,-0.39339 -0.05202,-0.0787 -0.101847,-0.14292 -0.110736,-0.14292 -0.0089,0 -0.08214,0.0568 -0.162799,0.12618 -0.337119,0.29011 -0.882931,0.47978 -1.715707,0.59624 -0.223017,0.0312 -0.672019,0.10443 -0.997779,0.16269 -0.32576,0.0582 -0.712135,0.11941 -0.85861,0.13582 -0.146476,0.0165 -0.278999,0.0434 -0.294497,0.0598 -0.0155,0.0165 -0.0479,0.38749 -0.07199,0.82449 -0.04758,0.86294 -0.02854,1.20699 0.112156,2.02623 0.16276,0.94774 -0.0142,1.66343 -0.550391,2.22599 -0.250188,0.26248 -0.336096,0.30364 -0.450266,0.21575 -0.05984,-0.046 -0.530165,-0.85884 -0.740962,-1.28046 -0.141385,-0.28279 -0.188592,-0.46728 -0.238507,-0.93208 -0.01978,-0.18423 -0.06061,-0.50496 -0.09073,-0.71273 -0.03012,-0.20777 -0.0655,-0.79042 -0.07863,-1.2948 l -0.02386,-0.91706 -0.200029,-0.19528 c -0.138888,-0.13559 -0.216811,-0.24636 -0.254927,-0.36239 -0.0302,-0.0919 -0.214403,-0.90495 -0.409353,-1.80671 -0.403137,-1.86476 -0.412639,-1.90403 -0.460697,-1.90403 -0.09683,0 -0.315325,0.14938 -0.335383,0.2293 -0.01207,0.048 0.03471,0.44058 0.103957,0.87225 0.275474,1.71739 0.329407,2.47966 0.212207,2.99926 -0.07385,0.32739 -0.162517,0.50222 -0.343305,0.67689 -0.08029,0.0776 -0.172681,0.19203 -0.205317,0.25437 -0.07757,0.14814 -0.197837,0.17668 -0.409383,0.0971 -0.204159,-0.0768 -0.39713,-0.27096 -0.474787,-0.47777 -0.0984,-0.26207 -0.765151,-2.63176 -0.870082,-3.09235 -0.05427,-0.23821 -0.105244,-0.43969 -0.113271,-0.44771 -0.0081,-0.008 -0.521852,0.056 -1.141828,0.14235 -0.619975,0.0864 -1.214496,0.1688 -1.321159,0.18326 l -0.193928,0.0263 -0.02335,0.1763 c -0.0378,0.28536 -0.03275,2.85279 0.0066,3.36908 0.08159,1.06957 0.214314,1.70262 0.601096,2.8671 0.190425,0.57329 0.279482,0.89432 0.279482,1.00743 0,0.24793 -0.08677,0.46688 -0.213731,0.53931 -0.06414,0.0366 -0.135205,0.12486 -0.177463,0.22039 -0.06544,0.14794 -0.07982,0.15927 -0.201057,0.15839 -0.07879,-5.5e-4 -0.213684,-0.046 -0.340112,-0.11463 z m 0.750482,-0.58495 c 0.06659,-0.22227 0.05102,-0.30603 -0.174079,-0.93654 -0.516813,-1.44759 -0.651442,-2.21664 -0.738064,-4.21611 -0.04901,-1.13132 0.01923,-2.6505 0.128623,-2.86357 0.06167,-0.12007 0.163851,-0.14753 0.824364,-0.22115 0.822066,-0.0917 1.788762,-0.22733 2.09911,-0.29462 l 0.287627,-0.0624 0.113629,0.52773 c 0.107725,0.50034 0.533744,2.04918 0.79792,2.90098 0.105881,0.3414 0.139977,0.40897 0.261973,0.51919 0.155144,0.14015 0.299599,0.19241 0.385483,0.13943 0.03094,-0.0191 0.10868,-0.16025 0.172762,-0.31371 l 0.116522,-0.27902 -0.01804,-0.68757 c -0.02096,-0.79839 -0.04425,-1.01716 -0.233507,-2.1929 -0.07707,-0.47885 -0.140145,-0.93286 -0.140145,-1.0089 0,-0.18184 0.07243,-0.2512 0.570749,-0.54651 0.349475,-0.20709 0.40211,-0.22872 0.424845,-0.17451 0.01428,0.0341 0.13791,0.58548 0.27475,1.22545 0.387245,1.81102 0.559172,2.55211 0.618855,2.66753 0.03022,0.0584 0.141126,0.2 0.246451,0.31456 l 0.191498,0.2083 6.86e-4,0.76721 c 4.41e-4,0.49108 0.02005,0.9068 0.05449,1.15506 0.02959,0.21333 0.07566,0.60206 0.102364,0.86387 0.06252,0.61291 0.142355,0.83115 0.682659,1.86619 l 0.26554,0.50868 0.135358,-0.15609 c 0.162153,-0.18697 0.290141,-0.55748 0.349172,-1.01077 0.0371,-0.28487 0.03261,-0.35136 -0.05764,-0.85541 -0.125677,-0.70183 -0.149187,-1.49218 -0.07449,-2.50345 0.02936,-0.39755 0.0635,-0.74913 0.07587,-0.7813 0.03536,-0.0919 0.177083,-0.12724 0.6718,-0.16698 0.635003,-0.051 2.531289,-0.36891 2.839038,-0.47593 0.318965,-0.11092 0.588631,-0.27472 0.811337,-0.49279 0.09679,-0.0947 0.181344,-0.16634 0.187899,-0.15901 0.0065,0.008 0.04494,0.0788 0.0853,0.15887 0.101316,0.20099 0.363836,0.42156 0.607428,0.51039 0.112289,0.0409 0.236696,0.10907 0.276461,0.15139 0.05303,0.0565 0.124376,0.30676 0.267774,0.93943 0.107513,0.47436 0.273687,1.17187 0.36928,1.55003 0.331595,1.31175 0.388244,1.43661 0.63394,1.3973 0.06885,-0.0106 0.151409,-0.0521 0.183462,-0.0913 0.08052,-0.0985 0.265442,-0.55146 0.334467,-0.81936 0.09768,-0.37913 0.03122,-1.18885 -0.214502,-2.61321 -0.104501,-0.60576 -0.103545,-0.59184 -0.04601,-0.6704 0.05364,-0.0732 0.93823,-0.37641 1.098309,-0.37641 0.148602,0 0.222423,0.0824 0.409307,0.45675 0.17777,0.35613 1.485983,2.70925 1.618114,2.91056 0.05091,0.0776 0.152871,0.17059 0.226568,0.20669 0.128158,0.0628 0.140921,0.063 0.293085,0.005 0.369896,-0.14127 0.507935,-0.57948 0.372096,-1.18125 -0.0197,-0.0873 -0.03037,-0.16417 -0.02372,-0.17088 0.01889,-0.0191 0.293865,0.18056 0.545946,0.39639 0.663901,0.56842 1.330714,0.67367 2.172609,0.34286 l 0.18043,-0.0709 0.02201,0.1832 c 0.01207,0.1007 0.02216,0.54812 0.02234,0.99416 3.89e-4,0.93224 0.04266,1.47342 0.144848,1.85461 0.123076,0.45908 0.253974,0.58798 0.495483,0.48794 0.137133,-0.0568 0.22859,-0.25368 0.414807,-0.89298 0.177018,-0.60773 0.187096,-0.67295 0.371061,-2.40158 0.15125,-1.42127 0.160982,-1.48384 0.241607,-1.55363 0.07126,-0.0617 0.164345,-0.0787 0.613097,-0.11238 0.299419,-0.0224 0.711335,-0.0804 0.948926,-0.13372 0.834748,-0.18711 1.975092,-0.59665 3.097162,-1.1123 0.471279,-0.21658 0.597544,-0.29165 0.784125,-0.46618 0.326636,-0.30556 0.446178,-0.56644 0.464107,-1.01289 0.02508,-0.62423 -0.185795,-1.08639 -0.819985,-1.79713 -0.253171,-0.28374 -0.315687,-0.40075 -0.288019,-0.5391 0.02526,-0.12631 2.729546,-5.03312 3.237883,-5.87502 0.582186,-0.9642 1.896255,-2.92522 2.090011,-3.11897 0.11152,-0.11159 0.257689,-0.0669 0.948613,0.29016 3.34654,1.729 3.8037,1.98182 4.416952,2.44275 0.653059,0.49086 1.296804,1.21041 1.541337,1.72285 0.09436,0.19774 0.111015,0.27601 0.121405,0.57047 0.02417,0.68532 -0.17654,1.06979 -0.81397,1.5592 -0.335973,0.25795 -0.631379,0.61038 -0.700947,0.83628 -0.04972,0.1614 0.0032,0.28102 0.191436,0.43238 0.114465,0.0921 0.168939,0.1096 0.370228,0.11928 0.196326,0.009 0.293654,-0.009 0.578764,-0.10866 0.424352,-0.14857 0.67108,-0.29465 0.982727,-0.58188 0.310247,-0.28595 0.562003,-0.66393 0.689339,-1.03497 0.09218,-0.26856 0.100746,-0.33578 0.100454,-0.78727 -3.53e-4,-0.40453 -0.01498,-0.54774 -0.08159,-0.79334 -0.150465,-0.55487 -0.447433,-1.09092 -0.937221,-1.69173 -0.548188,-0.67248 -0.935076,-1.00788 -2.165783,-1.87762 -0.771848,-0.54545 -0.913057,-0.62971 -1.874881,-1.11865 -1.209567,-0.61491 -2.299363,-1.20519 -2.31573,-1.25429 -0.0062,-0.0188 0.132072,-0.28019 0.307437,-0.58078 0.449842,-0.77104 0.566093,-1.0221 0.588698,-1.27139 0.04357,-0.48059 -0.293601,-0.89056 -0.852057,-1.03598 -0.357491,-0.0931 -0.585736,0.0139 -0.888293,0.4164 -0.252119,0.33538 -0.36045,0.57488 -0.520717,1.1512 -0.103214,0.37115 -0.255362,0.43073 -0.624328,0.24447 -0.739127,-0.3731 -2.499331,-1.50818 -3.999456,-2.57906 -1.147971,-0.81948 -1.509191,-1.09892 -1.88146,-1.45552 -0.289451,-0.27725 -1.008014,-1.11908 -1.094665,-1.28246 -0.05853,-0.11039 -0.02518,-0.2239 0.107155,-0.36495 0.165076,-0.17594 0.24124,-0.36808 0.241904,-0.61022 0.0011,-0.41929 -0.134538,-0.65109 -0.464114,-0.79287 -0.562603,-0.24203 -1.066532,-0.0378 -1.361565,0.5519 -0.361483,0.72247 -0.175889,1.56404 0.551759,2.50197 0.294807,0.38 1.064657,1.13668 1.662747,1.63431 1.09275,0.9092 1.907355,1.45144 4.724814,3.14507 0.838429,0.50399 0.899837,0.54776 0.909678,0.64846 0.0088,0.09 -0.126526,0.31581 -0.814508,1.35893 -0.931745,1.41272 -1.167184,1.78219 -1.424479,2.23537 -0.371683,0.65465 -0.9227,1.75107 -1.030901,2.05129 -0.133067,0.36922 -0.315604,0.71456 -0.701127,1.32648 -0.191292,0.30363 -0.338572,0.59194 -0.4503,0.88149 -0.260608,0.67541 -0.476952,1.20347 -0.50541,1.23363 -0.022,0.0233 -1.248208,-0.8337 -2.192201,-1.53213 -0.312578,-0.23127 -0.376215,-0.34983 -0.375796,-0.70008 5.3e-4,-0.43746 -0.220554,-0.76133 -0.622296,-0.91165 -0.374724,-0.14019 -0.648439,-0.077 -0.833941,0.19264 -0.05756,0.0837 -0.119162,0.16108 -0.136888,0.17204 -0.03334,0.0206 -0.753661,-0.3849 -1.095159,-0.61652 -0.285549,-0.19368 -0.753438,-0.61046 -1.417695,-1.26283 -0.66723,-0.6553 -0.602072,-0.52559 -0.662725,-1.31936 -0.01891,-0.24734 -0.05619,-0.50196 -0.08286,-0.5658 -0.137707,-0.32958 -0.700434,-0.51153 -1.067084,-0.34502 -0.282985,0.12857 -0.43675,0.45323 -0.463587,0.97902 -0.0208,0.40771 0.05041,0.74637 0.238927,1.1362 0.401811,0.8309 0.702158,1.10775 2.775248,2.55825 1.08431,0.75866 1.149275,0.82124 1.012361,0.97504 -0.10722,0.12048 -1.073687,0.92521 -1.50273,1.25129 -0.452823,0.34415 -0.738552,0.49301 -1.033591,0.53848 -0.298887,0.046 -0.488865,0.007 -1.204714,-0.25353 -0.345838,-0.12539 -0.681064,-0.23907 -0.744946,-0.25255 -0.433325,-0.0914 -0.957935,0.38628 -0.958929,0.87322 -4.66e-4,0.22856 0.05951,0.35602 0.294106,0.62502 0.260489,0.29868 0.260017,0.35961 -0.0036,0.4588 -0.406185,0.15286 -0.389841,0.15922 -0.606177,-0.23541 -0.309585,-0.56471 -1.02089,-1.80448 -1.22244,-2.13065 -0.204339,-0.3307 -0.439866,-0.57187 -0.64019,-0.65558 -0.196712,-0.0821 -0.485771,-0.0681 -0.74245,0.0362 -0.253481,0.10296 -0.231381,0.12432 -0.302438,-0.29278 -0.06442,-0.37821 -0.03466,-0.45049 0.22275,-0.54097 0.119467,-0.0419 0.257242,-0.13546 0.409212,-0.27763 0.208588,-0.19512 0.258834,-0.27327 0.561025,-0.87263 0.182555,-0.36208 0.362275,-0.69582 0.399375,-0.74163 0.102113,-0.12605 0.23229,-0.10177 0.700457,0.13082 0.719424,0.35749 0.894724,0.4103 0.894724,0.26951 0,-0.0557 -0.384717,-0.85815 -0.562783,-1.17387 -0.125571,-0.22267 -0.142557,-0.46521 -0.04672,-0.66718 0.03324,-0.0701 0.213941,-0.28898 0.401551,-0.48651 0.493829,-0.51993 0.502814,-0.57727 0.183435,-1.17059 -0.209125,-0.38849 -0.211486,-0.52074 -0.0151,-0.84606 0.171214,-0.28363 0.188251,-0.36193 0.304593,-1.39975 0.110113,-0.98227 0.492973,-3.77082 0.56574,-4.12057 0.12155,-0.58425 0.13839,-0.59691 0.588886,-0.44288 0.644809,0.22048 0.836753,0.33471 0.884159,0.52621 0.02387,0.0965 -0.165394,1.24464 -0.334172,2.02744 -0.05854,0.27149 -0.231199,0.86651 -0.383691,1.32223 -0.398402,1.19067 -0.458953,1.56613 -0.289515,1.79521 0.167488,0.22643 0.550205,0.26417 0.924982,0.0912 0.214334,-0.099 0.256613,-0.10575 0.652307,-0.10575 0.492269,0 0.727199,0.0598 1.305759,0.33244 0.308963,0.14559 0.393772,0.20662 0.669936,0.48214 0.440528,0.43948 0.844369,0.62877 1.147643,0.53791 0.179094,-0.0536 0.30055,-0.18756 0.354857,-0.3912 0.03971,-0.14893 0.03535,-0.20629 -0.04027,-0.5289 -0.04665,-0.19903 -0.09093,-0.44347 -0.09838,-0.54319 -0.01345,-0.17965 -0.01221,-0.18229 0.139326,-0.28532 0.160128,-0.10893 0.604924,-0.36196 0.636217,-0.36196 0.02226,0 0.02992,-0.0458 -0.184395,1.10429 -0.09691,0.52009 -0.199525,0.9907 -0.228017,1.0458 -0.07463,0.14435 -0.284498,0.30521 -0.4537,0.3478 -0.08035,0.0202 -0.308948,0.045 -0.507977,0.0549 -0.422355,0.0212 -0.623408,0.0937 -0.757019,0.27255 -0.116217,0.15562 -0.211026,0.45315 -0.216556,0.67961 -0.004,0.16117 0.01061,0.19957 0.13113,0.3468 0.174369,0.21297 0.412961,0.37004 0.606069,0.39901 0.194634,0.0292 0.422961,-0.046 0.701391,-0.23099 0.208917,-0.13879 0.442023,-0.20409 0.576363,-0.16145 0.03819,0.0119 0.432458,-0.0488 0.876164,-0.13556 0.761428,-0.14875 1.178658,-0.21242 2.781282,-0.42444 0.368466,-0.0487 0.788939,-0.1214 0.934386,-0.16138 0.661657,-0.18205 1.166873,-0.55031 1.384025,-1.00881 0.109676,-0.2316 0.114346,-0.25892 0.110419,-0.64729 -0.005,-0.49339 -0.09736,-0.83968 -0.383007,-1.43589 -0.334305,-0.69775 -0.731405,-1.23665 -2.09898,-2.84846 -0.378314,-0.44588 -0.797916,-0.9535 -0.932454,-1.12803 -0.734626,-0.95303 -0.818298,-1.04016 -0.998903,-1.04016 -0.09252,0 -0.519042,0.27039 -0.701818,0.44492 -0.121922,0.11636 -0.152079,0.16938 -0.152079,0.26709 0,0.13596 0.126565,0.53317 0.24195,0.75935 0.04146,0.0813 0.07539,0.17459 0.07539,0.20736 0,0.0328 -0.06566,0.17223 -0.145923,0.30993 -0.08026,0.13769 -0.21116,0.40901 -0.290894,0.60294 l -0.14497,0.3526 -0.699752,0.46719 c -0.408478,0.27273 -0.734705,0.4672 -0.783719,0.4672 -0.05181,0 -0.107287,-0.0356 -0.144883,-0.093 -0.0335,-0.0511 -0.248704,-0.68184 -0.478219,-1.40158 -0.378407,-1.18663 -0.437923,-1.41675 -0.540754,-2.09087 -0.03965,-0.25987 -0.653337,-0.97532 -1.142159,-1.33154 -0.20176,-0.14702 -0.242673,-0.16365 -0.352598,-0.14329 -0.382733,0.0709 -0.540572,0.0605 -0.984545,-0.0648 -0.240393,-0.0678 -0.466533,-0.15277 -0.502536,-0.18878 -0.036,-0.036 -0.09542,-0.1735 -0.132033,-0.30556 -0.139814,-0.5042 -0.624757,-0.76295 -1.074691,-0.57338 -0.17655,0.0744 -0.371609,0.0732 -0.481486,-0.003 -0.04795,-0.0332 -0.388652,-0.29947 -0.757117,-0.59173 -0.815495,-0.64686 -0.813453,-0.64541 -0.982698,-0.69116 -0.406444,-0.10986 -0.935575,0.3131 -0.938187,0.74995 -5.67e-4,0.0949 0.03346,0.1751 0.12703,0.2997 0.265647,0.35373 0.422304,0.48356 1.491919,1.23636 0.339823,0.23916 0.631045,0.45841 0.647162,0.48721 0.05249,0.0938 -0.0065,0.17744 -0.384969,0.54562 l -0.37285,0.36275 -0.207534,-0.40227 c -0.31804,-0.61648 -0.556869,-0.78057 -1.024355,-0.70377 -0.150102,0.0247 -2.45621,0.66731 -2.630471,0.73304 -0.02408,0.009 -0.05337,-0.008 -0.06507,-0.039 -0.02384,-0.0621 0.675998,-0.85005 0.906107,-1.02015 0.07343,-0.0543 0.165205,-0.14998 0.203962,-0.21269 0.16262,-0.26313 0.173402,-0.68579 0.02199,-0.86182 -0.06784,-0.0788 -0.104434,-0.0906 -0.269538,-0.0862 -0.105071,0.003 -0.301763,0.0389 -0.437092,0.0803 -0.450553,0.13788 -0.633924,0.2613 -1.127549,0.75886 -0.333241,0.33589 -0.511319,0.4875 -0.652306,0.55536 -0.179682,0.0865 -2.219703,0.66255 -3.00589,0.84882 l -0.343776,0.0815 -0.03899,-0.14484 c -0.02145,-0.0796 -0.06885,-0.24004 -0.105337,-0.3564 -0.13671,-0.43598 -0.0924,-0.48759 0.557449,-0.64949 0.2479,-0.0617 0.807733,-0.21554 1.244073,-0.34174 1.51212,-0.43733 1.705724,-0.51961 2.024473,-0.86038 0.249852,-0.26711 0.285487,-0.43569 0.114889,-0.54348 -0.121112,-0.0765 -0.56056,-0.16123 -0.836423,-0.16123 -0.240897,0 -4.283764,0.59548 -4.551573,0.6704 -0.212585,0.0594 -0.313766,0.16952 -0.474723,0.51631 -0.277698,0.59832 -0.274893,0.69524 0.02638,0.91169 0.264952,0.19034 0.40716,0.4726 0.472004,0.93683 l 0.02257,0.16156 -0.188228,-0.0268 c -0.103532,-0.0147 -0.53194,-0.028 -0.952029,-0.0293 -0.693942,-0.003 -1.212816,-0.051 -1.33246,-0.12499 -0.05177,-0.032 0.803846,-1.24153 1.09952,-1.55432 0.149938,-0.15861 0.36414,-0.3495 0.476007,-0.42417 0.335916,-0.22425 0.362062,-0.25516 0.362062,-0.42813 0,-0.18526 -0.06523,-0.32194 -0.212997,-0.44627 -0.08829,-0.0743 -0.146419,-0.0924 -0.297261,-0.0924 -0.666135,0 -1.612928,0.70666 -2.31114,1.72499 -0.165176,0.24091 -0.316567,0.44342 -0.336424,0.45004 -0.01985,0.007 -0.281132,-0.48402 -0.580614,-1.09031 -0.460738,-0.93276 -0.573285,-1.1329 -0.731538,-1.30089 -0.226623,-0.24058 -0.48833,-0.3674 -0.866724,-0.42003 -0.362051,-0.0504 -0.42492,-0.0181 -0.585342,0.30123 -0.151098,0.30066 -0.147452,0.0927 -0.05952,3.39409 0.04741,1.77984 0.05329,2.40147 0.02359,2.49147 -0.04182,0.12671 -0.166361,0.1982 -0.427872,0.24556 l -0.127229,0.0231 -0.02295,-0.18577 c -0.0126,-0.10217 -0.03289,-0.51106 -0.04505,-0.90861 l -0.02209,-0.72283 0.113204,-0.28491 0.113205,-0.28491 -0.127707,-0.23234 c -0.07024,-0.12777 -0.140197,-0.31135 -0.155464,-0.40793 -0.01527,-0.0966 -0.01615,-1.18591 -0.002,-2.42074 0.02824,-2.45722 0.02557,-2.50251 -0.171972,-2.92463 -0.175252,-0.37451 -0.413042,-0.54735 -0.770981,-0.56038 -0.15936,-0.005 -0.196947,0.007 -0.294414,0.0991 -0.171972,0.1628 -0.303278,0.37101 -0.364938,0.57864 -0.04851,0.16332 -0.05119,0.2726 -0.01988,0.80999 0.0199,0.34164 0.05147,0.79571 0.07014,1.00903 0.05437,0.62119 0.111267,2.71386 0.08555,3.14694 l -0.02355,0.39668 -0.252157,-10e-4 c -0.18804,-0.001 -2.54404,-0.12923 -2.54404,-0.13861 0,-8.9e-4 0,-1.58435 0,-3.51879 0,-4.02015 -0.0065,-4.16963 -0.3185319,-7.2971 -0.1378053,-1.38133 -0.2025967,-1.79402 -0.402983,-2.56684 -0.4078762,-1.57303 -0.7472499,-2.03734 -1.3784491,-1.88592 -0.2512858,0.0602 -0.4314101,0.23771 -0.5076733,0.50008 -0.071264,0.24515 -0.05432,0.35626 0.1225985,0.80405 0.2776591,0.70274 0.3611084,0.99631 0.5459774,1.92075 0.2328934,1.16458 0.3169822,1.73416 0.387946,2.62776 0.030026,0.37816 0.078362,0.90971 0.1074064,1.18121 0.1013826,0.94769 0.1301614,2.45788 0.1038505,5.44764 -0.045377,5.15429 0.00385,7.44859 0.2125227,9.90801 0.1145977,1.35048 0.1704968,1.77692 0.2975136,2.26954 0.1399693,0.54286 0.5899165,1.75048 0.6825328,1.83187 0.07194,0.0633 0.074209,0.0618 0.1544343,-0.0961 0.1654576,-0.32557 0.1864121,-0.49171 0.1323507,-1.04935 -0.2030133,-2.09428 -0.3093078,-5.54506 -0.2396761,-7.78093 l 0.023233,-0.74614 h 1.5281961 c 1.1162404,0 1.5281954,0.0106 1.5281954,0.0401 0,0.0951 0.29423,2.95168 0.391754,3.8033 0.05884,0.51392 0.119016,1.20412 0.133698,1.53381 0.02619,0.58809 0.02923,0.60541 0.160795,0.91675 0.194532,0.46034 0.261508,0.74886 0.302841,1.30462 0.05277,0.70954 0.07843,5.58468 0.04416,8.39182 -0.03074,2.51869 -0.01657,3.24473 0.07406,3.79256 0.03029,0.18306 0.07085,0.46444 0.09013,0.62526 0.04641,0.38717 0.389883,1.2282 0.944918,2.3138 0.231028,0.45186 0.512536,0.7653 0.819468,0.9124 0.274333,0.13149 0.332522,0.12525 0.382277,-0.0409 z m 20.217235,-5.03129 c -0.10787,-0.0756 -0.529864,-0.72212 -0.746241,-1.14336 -0.317731,-0.61855 -0.487772,-1.27857 -0.451969,-1.75429 0.0098,-0.13109 0.06358,-0.3733 0.119361,-0.53814 0.09894,-0.29237 0.104381,-0.29999 0.222255,-0.31122 0.109993,-0.0106 0.14283,0.0119 0.365826,0.24681 0.608521,0.64167 0.95047,1.33889 1.1012,2.24527 0.07398,0.44487 0.05408,0.65368 -0.09021,0.94681 -0.16393,0.33297 -0.337746,0.43592 -0.520218,0.30812 z m 0.167975,-0.53115 c 0.0013,-0.69486 -0.433209,-1.74907 -0.957258,-2.32247 -0.0976,-0.10681 -0.19039,-0.18618 -0.206185,-0.17643 -0.01579,0.009 -0.03886,0.0779 -0.05127,0.15123 -0.08887,0.52605 0.49298,1.9917 1.024053,2.57953 0.164916,0.18255 0.189932,0.15212 0.190658,-0.23186 z m -0.339769,-0.35654 c -0.228232,-0.30963 -0.576447,-1.18079 -0.576447,-1.44214 v -0.13538 l 0.128676,0.19108 c 0.187671,0.27867 0.353582,0.65805 0.455911,1.04252 0.105668,0.397 0.103346,0.49516 -0.0081,0.34392 z m 3.380208,-0.21214 c 0.0086,-0.034 0.173168,-1.22411 0.365524,-2.64485 0.249774,-1.84477 0.361561,-2.5786 0.391082,-2.5673 0.122691,0.047 1.814564,1.18051 1.938577,1.29879 0.308377,0.29416 0.422532,0.67045 0.381113,1.25631 -0.02789,0.39441 -0.02375,0.40136 0.313042,0.52661 0.383088,0.14246 0.559267,0.0714 0.61003,-0.24608 0.01194,-0.0747 0.03714,-0.13574 0.05598,-0.13574 0.0657,0 0.274046,0.24033 0.274046,0.31613 0,0.14177 -0.06666,0.20267 -0.607018,0.55452 -1.193851,0.77736 -2.244093,1.28418 -3.277459,1.58161 -0.232573,0.067 -0.431371,0.12167 -0.44178,0.12167 -0.01035,0 -0.01181,-0.0277 -0.0032,-0.0617 z m 1.050238,-0.42182 c 0.620305,-0.22892 2.139862,-1.00825 2.116579,-1.08553 -0.0058,-0.0194 -0.107619,-0.0717 -0.226181,-0.11596 -0.118552,-0.0444 -0.247181,-0.11225 -0.285834,-0.1506 -0.07388,-0.0734 -0.07396,-0.0744 -0.05423,-0.70302 0.01128,-0.35818 -0.0318,-0.53587 -0.1845,-0.76151 -0.126035,-0.18625 -0.236678,-0.26701 -1.076432,-0.78571 -0.352634,-0.21781 -0.579499,-0.33819 -0.58751,-0.31175 -0.02061,0.0681 -0.548356,4.01869 -0.548237,4.10407 v 0.0765 l 0.255634,-0.0715 c 0.140598,-0.0393 0.406369,-0.12711 0.590601,-0.19507 z m -0.58813,-0.15456 c 0.01168,-0.066 0.119228,-0.84987 0.239087,-1.74195 0.119865,-0.89208 0.228166,-1.63363 0.240676,-1.6479 0.01247,-0.0142 0.260183,0.11835 0.55038,0.29458 0.859456,0.5221 0.879804,0.55256 0.881182,1.31807 10e-4,0.57797 0.02735,0.67815 0.217359,0.8276 0.116522,0.0917 0.160115,0.0585 -0.553279,0.42051 -0.556869,0.28256 -1.268303,0.58342 -1.479484,0.62565 -0.117012,0.0234 -0.117065,0.0234 -0.09592,-0.0966 z m -1.968554,0.0298 c -0.0086,-0.0243 -0.07286,-0.21067 -0.142634,-0.4143 -0.15142,-0.44187 -0.44576,-1.04039 -0.767179,-1.55999 -0.264619,-0.42779 -0.299665,-0.52437 -0.234467,-0.6462 0.0488,-0.0912 1.177963,-0.96564 1.466847,-1.13597 l 0.173612,-0.10243 -0.01022,0.10906 c -0.0056,0.06 -0.0579,0.66447 -0.116203,1.34322 -0.144739,1.68507 -0.210639,2.31395 -0.250226,2.38792 -0.03899,0.0728 -0.09691,0.0819 -0.119547,0.0186 z m -0.101144,-2.0423 c 0.04741,-0.51059 0.08171,-0.97162 0.07621,-1.02453 -0.0097,-0.0939 -0.02083,-0.0878 -0.468364,0.25449 -0.252107,0.19287 -0.458376,0.37201 -0.458376,0.39808 0,0.0565 0.729607,1.335 0.750129,1.31448 0.0078,-0.008 0.05298,-0.43194 0.100387,-0.94252 z m -0.454599,-0.0732 -0.16339,-0.25564 0.07766,-0.0609 c 0.04271,-0.0334 0.14735,-0.11145 0.232525,-0.17327 l 0.154865,-0.11238 -0.02063,0.12034 c -0.01141,0.0662 -0.03135,0.25922 -0.04444,0.42891 -0.01314,0.16969 -0.03492,0.30851 -0.0485,0.30851 -0.01359,0 -0.09822,-0.11503 -0.188087,-0.25562 z m -13.29898,1.55482 c 0.116986,-0.83069 0.492445,-2.21825 0.84426,-3.12003 0.18666,-0.47846 0.292615,-0.69112 0.332167,-0.66667 0.03032,0.0187 0.188893,0.29882 0.830005,1.46597 0.742145,1.35108 0.908302,1.82206 0.724602,2.05387 -0.09716,0.1226 -0.272734,0.21308 -0.605058,0.31175 -0.230529,0.0685 -0.363803,0.0787 -1.203399,0.0926 l -0.944158,0.0157 z m 2.006498,-0.0965 c 0.154441,-0.0414 0.293807,-0.0884 0.309701,-0.10428 0.04441,-0.0444 -0.323376,-0.87169 -0.680121,-1.5298 -0.397133,-0.73262 -0.681633,-1.19098 -0.711026,-1.14552 -0.01531,0.0238 -0.09906,0.25959 -0.186096,0.52424 -0.264723,0.80493 -0.547059,1.97112 -0.547059,2.25962 v 0.10615 l 0.7669,-0.0175 c 0.633329,-0.0145 0.815808,-0.0306 1.047701,-0.0929 z m -1.294519,-0.13618 c -0.212401,-0.008 -0.308234,-0.0247 -0.307593,-0.0541 5.11e-4,-0.0235 0.124403,-0.50284 0.275319,-1.06525 0.188244,-0.7015 0.28938,-1.02253 0.322143,-1.02253 0.04738,0 1.097534,1.98895 1.072809,2.03185 -0.03632,0.063 -0.852861,0.12897 -1.362678,0.10999 z m 3.594405,-0.017 c -0.0421,-0.70558 -0.130135,-0.92215 -1.358331,-3.34117 -0.536544,-1.05678 -0.996444,-1.97706 -1.021997,-2.04507 -0.02555,-0.0681 -0.03941,-0.17921 -0.03078,-0.24707 0.0086,-0.0679 0.198481,-0.62323 0.421906,-1.23409 0.223425,-0.61089 0.425805,-1.2 0.449733,-1.30913 0.02465,-0.11251 0.03673,-0.3277 0.02785,-0.49676 -0.013,-0.24887 -0.03624,-0.34166 -0.13986,-0.55985 -0.209379,-0.4409 -0.606137,-0.75889 -0.991693,-0.79484 -0.386989,-0.0361 -0.530258,0.17514 -0.591548,0.87211 -0.06856,0.77964 -0.08153,0.85861 -0.14295,0.8704 -0.04601,0.009 -0.07325,-0.0743 -0.146456,-0.44734 -0.04946,-0.25201 -0.129047,-0.54367 -0.176879,-0.64813 -0.15438,-0.33721 -0.44357,-0.55659 -0.886013,-0.67213 -0.112329,-0.0293 -0.210052,-0.0592 -0.217148,-0.0662 -0.04348,-0.0435 0.167031,-0.26414 0.499494,-0.52356 2.720121,-2.12254 2.801416,-2.19318 3.008937,-2.61472 0.06139,-0.12472 0.13293,-0.34943 0.15897,-0.49939 0.02604,-0.14996 0.05498,-0.28029 0.06432,-0.28963 0.0093,-0.009 0.131727,0.11012 0.271969,0.26541 0.147378,0.16323 0.317571,0.3127 0.403281,0.3542 0.197341,0.0955 0.42929,0.0926 0.612783,-0.008 0.07989,-0.0436 0.76621,-0.63469 1.525164,-1.31344 1.478222,-1.322 1.692733,-1.50792 1.714633,-1.48601 0.0077,0.008 -0.0024,0.1469 -0.02238,0.30928 -0.02004,0.16239 -0.06023,0.71572 -0.0893,1.22963 -0.02907,0.51391 -0.07798,1.34824 -0.108693,1.85405 -0.05082,0.8371 -0.05086,0.95796 -3.87e-4,1.34588 0.09339,0.71784 0.10523,0.66962 -0.279299,1.13702 -0.356247,0.43303 -0.436348,0.50673 -0.517046,0.47576 -0.02813,-0.0106 -0.264415,-0.34042 -0.52509,-0.73251 -0.653923,-0.98359 -0.752479,-1.08394 -1.063111,-1.08234 -0.306473,10e-4 -0.586862,0.21058 -0.663303,0.49446 -0.06718,0.24947 0.02529,0.46888 0.526858,1.25012 l 0.249011,0.38786 -0.430743,0.0106 c -0.38393,0.009 -0.439479,0.0182 -0.511127,0.0854 -0.154772,0.14541 -0.07132,0.5717 0.159696,0.81579 0.138627,0.14647 0.376114,0.25574 0.82527,0.37975 0.218861,0.0604 0.410072,0.121 0.424911,0.13456 0.02212,0.0203 -0.579751,2.14565 -0.63226,2.2327 -0.0088,0.0146 -0.142532,-0.0831 -0.297218,-0.21696 -0.154687,-0.13389 -0.33954,-0.2711 -0.410785,-0.3049 -0.287749,-0.13655 -0.5811,-0.0996 -0.810866,0.10216 -0.17825,0.15651 -0.254185,0.3449 -0.255115,0.63292 -6.74e-4,0.20842 0.04365,0.37625 0.339914,1.28698 0.666014,2.0474 0.823781,2.58573 0.965674,3.2951 0.07661,0.38299 0.13929,0.76855 0.13929,0.8568 0,0.23798 -0.10121,0.39668 -0.356069,0.55833 l -0.09162,0.0581 -0.0216,-0.36196 z m -0.538639,-2.23956 c -0.01207,-0.0533 -0.228243,-0.72242 -0.480322,-1.48685 -0.433039,-1.3132 -0.457586,-1.4027 -0.44488,-1.62195 0.017,-0.29326 0.09961,-0.46402 0.410765,-0.84912 0.320327,-0.39643 0.455834,-0.47314 0.794525,-0.4498 0.18614,0.0133 0.325383,0.0501 0.533802,0.14311 0.200036,0.0893 0.288612,0.11371 0.304823,0.084 0.02949,-0.0539 0.347591,-1.13466 0.347591,-1.18096 0,-0.0194 -0.115036,-0.069 -0.255634,-0.11026 -0.626061,-0.184 -0.907891,-0.35108 -1.058019,-0.62722 -0.207817,-0.38224 -0.188914,-0.72874 0.05054,-0.92642 0.06444,-0.0532 0.17835,-0.18568 0.253128,-0.2944 l 0.135958,-0.19767 -0.164506,-0.33147 c -0.277912,-0.55998 -0.257306,-0.79738 0.107273,-1.23599 0.300733,-0.36178 0.3945,-0.43972 0.601381,-0.49985 0.323118,-0.0939 0.585259,-0.005 0.86091,0.29055 0.08749,0.0939 0.354175,0.46152 0.592634,0.81683 l 0.433564,0.64602 0.122161,-0.13476 c 0.210194,-0.23183 0.234111,-0.32052 0.164575,-0.61024 -0.0548,-0.22832 -0.05626,-0.35758 -0.01738,-1.54405 0.02333,-0.71218 0.07498,-1.67339 0.114784,-2.13603 0.0398,-0.46265 0.06751,-0.87094 0.06159,-0.90734 -0.0085,-0.0521 -0.09646,0.0106 -0.416264,0.2957 -1.959467,1.74862 -2.433897,2.1598 -2.556336,2.2156 -0.17305,0.0788 -0.534802,0.0864 -0.706316,0.0147 -0.06724,-0.0281 -0.178664,-0.0941 -0.247597,-0.14668 -0.106544,-0.0813 -0.132033,-0.0881 -0.170004,-0.0459 -0.02457,0.0273 -0.198564,0.22703 -0.38666,0.44374 -0.445697,0.51352 -0.730418,0.77387 -1.404947,1.28471 -0.305008,0.231 -0.761106,0.5842 -1.013553,0.78491 l -0.458993,0.36491 0.259292,0.12818 c 0.241427,0.11928 0.418375,0.27275 0.552899,0.47946 l 0.05589,0.0858 0.208567,-0.26837 c 0.270314,-0.34783 0.406654,-0.42787 0.696348,-0.40876 0.821552,0.0541 1.432475,0.9465 1.292414,1.88773 -0.0278,0.1868 -0.175714,0.64528 -0.463879,1.43782 -0.369974,1.01756 -0.420766,1.18349 -0.404722,1.32225 0.01314,0.11411 0.247255,0.6119 0.833068,1.7718 0.448098,0.88723 0.830206,1.61314 0.849129,1.61314 0.01936,0 0.02478,-0.0425 0.01247,-0.097 z m -1.299588,-2.87373 c -0.107764,-0.22246 -0.195932,-0.4361 -0.195932,-0.47476 0,-0.0386 0.183515,-0.57638 0.40781,-1.19492 0.224296,-0.61853 0.430331,-1.21981 0.457856,-1.33616 0.104846,-0.44324 0.05382,-0.85656 -0.161071,-1.30461 -0.279136,-0.58201 -0.738565,-0.9268 -1.281401,-0.96163 -0.400697,-0.0257 -0.627318,0.0811 -0.819961,0.38618 l -0.08559,0.1356 -0.228461,-0.18308 c -0.125651,-0.10071 -0.228454,-0.19213 -0.228445,-0.20319 3.1e-5,-0.0357 0.320469,-0.29754 0.951998,-0.77795 1.000701,-0.76124 1.402274,-1.13056 1.800798,-1.65615 l 0.0907,-0.11955 0.24427,0.0996 c 0.176565,0.072 0.30877,0.1007 0.476967,0.10322 0.387725,0.005 0.534032,-0.0943 1.848965,-1.26583 0.631231,-0.5624 1.165345,-1.02864 1.186919,-1.03613 0.02766,-0.009 0.03276,0.058 0.01729,0.2292 -0.01207,0.13353 -0.03107,0.49664 -0.04225,0.80693 -0.01115,0.31028 -0.04418,0.99256 -0.07339,1.51618 -0.04648,0.83352 -0.04676,0.99876 -0.0023,1.3277 0.02793,0.20664 0.04,0.42843 0.02683,0.49287 l -0.02396,0.11716 -0.159909,-0.22842 c -0.08796,-0.12565 -0.284717,-0.40814 -0.43726,-0.62779 -0.152543,-0.21964 -0.353801,-0.46808 -0.447238,-0.55209 -0.294751,-0.26501 -0.631819,-0.32851 -1.004224,-0.18917 -0.289363,0.10827 -0.691513,0.51486 -0.873579,0.88326 -0.123315,0.2495 -0.132378,0.28855 -0.119561,0.51531 0.01128,0.20018 0.04076,0.29946 0.159896,0.53919 l 0.146033,0.29384 -0.212759,0.24785 c -0.278589,0.32456 -0.360069,0.50398 -0.335442,0.7387 0.06305,0.60089 0.426227,0.99088 1.135776,1.21964 0.13575,0.0438 0.256981,0.0852 0.269403,0.0922 0.02039,0.012 -0.169223,0.71649 -0.201737,0.75016 -0.0076,0.008 -0.133996,-0.0216 -0.281105,-0.0653 -0.537864,-0.15968 -0.838515,-0.10137 -1.161878,0.22517 -0.491742,0.49664 -0.685725,0.85639 -0.685683,1.27165 1.4e-5,0.13575 0.01605,0.31634 0.03565,0.40132 0.0196,0.0849 0.02804,0.16209 0.01877,0.17136 -0.0093,0.009 -0.105018,-0.16516 -0.212782,-0.38763 z m 3.943558,4.60221 c -0.02134,-0.015 -0.05546,-0.0589 -0.07583,-0.0977 -0.05792,-0.11026 -0.445746,-1.88431 -0.418008,-1.91204 0.05797,-0.058 0.167867,0.0893 0.561446,0.752 0.552845,0.93097 0.577801,0.98186 0.517284,1.05477 -0.107167,0.1291 -0.497154,0.26448 -0.584894,0.20298 z m -7.820708,-0.70594 c -0.01088,-0.0533 -0.05332,-0.32704 -0.0943,-0.60824 -0.08492,-0.58276 -0.07644,-0.91129 0.04141,-1.60432 0.03957,-0.23271 0.07198,-0.507 0.07203,-0.60953 1.06e-4,-0.24267 -0.107818,-0.46512 -0.285392,-0.58817 -0.295069,-0.20449 -0.853583,-0.29736 -1.009219,-0.16784 -0.04026,0.0336 -0.146399,0.16556 -0.235867,0.29344 -0.203927,0.29149 -0.486327,0.55179 -0.873176,0.80484 -0.30654,0.20054 -0.725895,0.41595 -0.75434,0.3875 -0.0086,-0.009 -0.136045,-0.43402 -0.28308,-0.94523 -0.541464,-1.88259 -0.667818,-2.18707 -1.010704,-2.43545 -0.214086,-0.15508 -0.512888,-0.2576 -0.692934,-0.23776 -0.320283,0.0353 -0.607787,0.33922 -0.634525,0.67073 -0.01375,0.17045 0.0021,0.21559 0.231521,0.65899 0.3343,0.64612 0.469141,1.02641 0.736342,2.07665 0.165828,0.65179 0.216527,0.90243 0.186326,0.9211 -0.02282,0.0141 -0.115221,0.0346 -0.205329,0.0455 -0.0901,0.0106 -0.659811,0.0844 -1.266001,0.16314 -1.256822,0.16334 -1.340952,0.16839 -1.373877,0.0825 -0.01287,-0.0333 -0.0044,-0.5054 0.01873,-1.04899 0.0231,-0.54357 0.06103,-1.83221 0.08428,-2.86361 0.04713,-2.09102 0.03249,-2.41278 -0.150284,-3.30113 -0.159904,-0.77721 -0.181275,-0.83258 -0.425404,-1.10196 -0.303821,-0.33525 -0.380918,-0.52164 -0.418162,-1.01095 -0.01664,-0.21852 -0.04922,-0.62738 -0.07245,-0.90857 -0.03129,-0.37915 -0.032,-0.53691 -0.0028,-0.6105 l 0.03946,-0.0992 0.135413,0.0762 c 0.219303,0.12326 0.262284,0.23337 0.288165,0.73824 0.01546,0.30153 0.04081,0.47664 0.07982,0.55126 0.07678,0.14686 0.273097,0.31453 0.42819,0.36572 0.107725,0.0356 0.146019,0.0321 0.256384,-0.0227 0.245468,-0.12207 0.324533,-0.33616 0.40103,-1.08598 0.05834,-0.57182 0.06253,-0.57589 0.721194,-0.70043 0.271138,-0.0512 0.564667,-0.10296 0.652288,-0.1149 l 0.159312,-0.0216 0.305835,0.6329 c 0.412231,0.85308 0.565764,0.98848 0.788984,0.69582 0.153996,-0.2019 0.235937,-0.49505 0.216584,-0.77485 -0.0168,-0.24279 -0.315312,-1.53968 -0.591621,-2.57025 -0.07745,-0.28887 -0.13523,-0.53077 -0.12841,-0.53761 0.01819,-0.0182 2.494699,0.11875 2.515022,0.13911 0.01816,0.0182 -0.5266,0.85522 -1.002712,1.54075 -0.331585,0.47743 -0.387718,0.6335 -0.303534,0.8439 0.06884,0.17202 0.215141,0.303 0.400492,0.35854 0.279239,0.0837 0.334029,0.0498 1.098084,-0.68013 0.387197,-0.36985 0.74078,-0.71948 0.785743,-0.77693 l 0.08175,-0.10442 0.06354,0.61145 c 0.05615,0.54046 0.05992,0.76298 0.03244,1.91608 -0.04414,1.85241 -0.04282,1.91053 0.0477,2.08471 0.09825,0.18904 0.242754,0.30775 0.484926,0.39836 0.284512,0.10641 0.49405,0.0868 0.722053,-0.0678 0.07912,-0.0536 0.246819,-0.11424 0.246819,-0.0893 0,0.005 -0.04364,0.0873 -0.09696,0.18181 -0.08275,0.14672 -0.09665,0.21069 -0.09479,0.43638 0.002,0.24805 0.02538,0.32567 0.376357,1.25172 0.205799,0.54299 0.456323,1.19355 0.556721,1.44565 0.151456,0.38032 0.185376,0.50642 0.199192,0.74046 l 0.01665,0.28208 -0.640762,2.09796 c -0.592241,1.93909 -0.712244,2.29189 -0.779587,2.29189 -0.01367,0 -0.03377,-0.0437 -0.04466,-0.097 z m 0.213941,-1.40318 c 0.502615,-1.62256 0.787532,-2.61115 0.787532,-2.73254 0,-0.1372 -0.167145,-0.60661 -0.884584,-2.48432 -0.228787,-0.59878 -0.257612,-0.70176 -0.271415,-0.96964 l -0.01544,-0.29971 -0.322219,-6.1e-4 c -0.261571,-4.9e-4 -0.348766,-0.0149 -0.463259,-0.0763 -0.166896,-0.0896 -0.371687,-0.29718 -0.463307,-0.46958 -0.07789,-0.14653 -0.08399,-0.53605 -0.03422,-2.1861 0.03172,-1.05215 -0.01128,-1.98232 -0.09395,-2.03343 -0.01877,-0.012 -0.266242,0.2157 -0.549929,0.50513 -0.283687,0.28942 -0.595128,0.58112 -0.692094,0.64822 -0.160463,0.11106 -0.198698,0.12194 -0.425692,0.12194 -0.212826,0 -0.270803,-0.0142 -0.395405,-0.0966 l -0.146012,-0.0966 -0.03653,0.14071 c -0.02009,0.0774 -0.052,0.20044 -0.07092,0.27346 -0.04769,0.18408 -0.19653,0.4061 -0.465331,0.69407 -0.206039,0.22075 -0.242133,0.24507 -0.36374,0.24507 -0.201793,0 -0.354875,-0.1968 -0.687938,-0.8844 -0.242796,-0.50123 -0.289144,-0.575 -0.359741,-0.57252 -0.04457,10e-4 -0.263507,0.0452 -0.486526,0.097 l -0.405488,0.0941 -0.02168,0.31734 c -0.03037,0.44464 -0.122851,0.66471 -0.461411,1.09804 -0.219255,0.28062 -0.357211,0.34122 -0.664269,0.29177 -0.120422,-0.0194 -0.22787,-0.0263 -0.238787,-0.0154 -0.01088,0.0106 0.04436,0.0869 0.122811,0.16898 0.325403,0.34011 0.385858,0.48377 0.556295,1.3219 0.158983,0.78179 0.172603,1.03641 0.147572,2.75868 -0.01287,0.88237 -0.03919,1.97719 -0.05859,2.43293 -0.03827,0.89872 -0.05221,1.89782 -0.02684,1.92319 0.01912,0.0191 2.07138,-0.2527 2.096329,-0.27764 0.02614,-0.0261 -0.214305,-0.95038 -0.378749,-1.45584 -0.08352,-0.25672 -0.253688,-0.65626 -0.405295,-0.95162 -0.143732,-0.28001 -0.270892,-0.5689 -0.282577,-0.64198 -0.02786,-0.17426 0.03228,-0.38853 0.152819,-0.54441 0.05338,-0.069 0.181008,-0.23719 0.283626,-0.37371 0.245493,-0.32659 0.464415,-0.44336 0.791827,-0.42233 0.455483,0.0292 0.910136,0.34731 1.115611,0.78048 0.103147,0.21745 0.436339,1.27546 0.705919,2.24159 0.07779,0.2788 0.148435,0.5139 0.156977,0.52245 0.02098,0.021 0.355474,-0.14991 0.551439,-0.28171 0.300937,-0.20242 0.534262,-0.42306 0.804851,-0.76114 0.347968,-0.43474 0.441059,-0.48545 0.792862,-0.43181 0.35355,0.0539 0.47795,0.0938 0.6672,0.21376 0.205984,0.1307 0.333377,0.3203 0.387067,0.57627 0.03654,0.17418 0.02987,0.27347 -0.05433,0.80841 -0.100427,0.63808 -0.126499,1.20827 -0.05416,1.18415 0.02203,-0.008 0.09389,-0.18716 0.159697,-0.39962 z m -7.274722,-0.65556 c 0.01287,-0.35613 0.04064,-1.11559 0.06168,-1.68769 0.02104,-0.57209 0.04079,-1.61138 0.04388,-2.30951 0.0048,-1.07007 -0.0044,-1.33302 -0.05803,-1.67485 -0.101224,-0.64478 -0.26912,-1.3761 -0.364284,-1.58668 l -0.08764,-0.19393 0.08019,-0.0529 c 0.141872,-0.0935 0.380604,-0.31088 0.525712,-0.47853 0.247394,-0.28586 0.379384,-0.60672 0.416042,-1.01142 l 0.02252,-0.24866 0.264448,-0.0635 c 0.145447,-0.035 0.288249,-0.0642 0.317339,-0.0649 0.03345,-8.5e-4 0.155051,0.20152 0.330908,0.55074 0.308237,0.61206 0.488409,0.83656 0.703848,0.87697 0.206692,0.0387 0.344411,-0.0349 0.646692,-0.34607 0.285206,-0.29359 0.428818,-0.50372 0.501696,-0.73407 l 0.04012,-0.12684 0.184165,0.0495 c 0.231489,0.0622 0.473884,0.0172 0.707802,-0.13109 0.08933,-0.0567 0.351731,-0.28683 0.583112,-0.51153 0.231382,-0.22469 0.429277,-0.39463 0.439768,-0.37766 0.0367,0.0595 0.03992,0.81251 0.0093,2.16379 -0.02863,1.26132 -0.02626,1.37735 0.03203,1.56264 0.119905,0.38119 0.51115,0.69462 0.996033,0.7979 0.110936,0.0236 0.219563,0.0604 0.241385,0.0816 0.02183,0.0212 0.07429,0.15766 0.116588,0.30311 0.228875,0.78691 0.501033,1.5797 0.768278,2.23795 0.297475,0.73273 0.300036,0.74166 0.282887,0.98728 -0.01101,0.15682 -0.0734,0.42002 -0.170028,0.71654 l -0.152721,0.46867 -0.05679,-0.20422 c -0.08078,-0.29046 -0.148043,-0.40211 -0.35367,-0.58699 -0.13894,-0.12485 -0.246245,-0.18335 -0.461663,-0.25141 -0.154358,-0.0487 -0.315532,-0.0889 -0.358164,-0.0892 -0.177616,-10e-4 -0.162993,-0.0519 0.101847,-0.35279 0.402175,-0.45693 0.492759,-0.71006 0.405139,-1.13214 -0.139741,-0.67313 -0.678606,-1.18123 -1.295791,-1.22182 -0.339366,-0.0223 -0.495486,0.0549 -0.826621,0.40926 -0.795081,0.85066 -0.850358,1.26118 -0.253124,1.87982 0.255224,0.26437 0.488303,0.38812 0.865971,0.45977 0.130626,0.0248 0.237499,0.0563 0.237499,0.0701 0,0.0562 -0.429753,0.58956 -0.625215,0.77579 -0.195146,0.18594 -0.61829,0.48769 -0.68388,0.48769 -0.01584,0 -0.05485,-0.0913 -0.08667,-0.20274 -0.297353,-1.0419 -0.6381,-2.11805 -0.737024,-2.3277 -0.225989,-0.47893 -0.621678,-0.79371 -1.146791,-0.91228 -0.473856,-0.10695 -0.760828,0.0322 -1.211405,0.58778 -0.318698,0.39295 -0.389597,0.5493 -0.39122,0.86277 -0.0012,0.24032 0.0068,0.26301 0.305137,0.86385 0.168528,0.33938 0.353605,0.76779 0.411282,0.95202 0.128131,0.40928 0.287207,1.01595 0.287207,1.09534 0,0.0492 -0.11136,0.0731 -0.71401,0.15324 -0.392707,0.0521 -0.760161,0.10389 -0.816565,0.11477 l -0.102551,0.0199 z m 5.11806,-2.12499 c -0.381735,-0.121 -0.701635,-0.38727 -0.851488,-0.70864 -0.09093,-0.19499 -0.100029,-0.28949 -0.0465,-0.48222 0.07073,-0.25467 0.63619,-0.92683 0.88777,-1.0553 0.281284,-0.14363 0.665202,-0.0618 1.01672,0.21653 0.290649,0.23021 0.486432,0.71057 0.442378,1.08541 -0.02716,0.23108 -0.06236,0.30517 -0.220778,0.46476 -0.06738,0.0679 -0.157188,0.17895 -0.19958,0.24683 -0.116163,0.186 -0.336941,0.28259 -0.639318,0.27972 -0.136489,-10e-4 -0.31163,-0.0224 -0.389201,-0.0471 z m 0.979592,-0.52779 c 0.246994,-0.10522 0.35782,-0.35323 0.305571,-0.68376 -0.07223,-0.45697 -0.473549,-0.88081 -0.899431,-0.94992 -0.353577,-0.0573 -0.82648,0.39473 -0.82648,0.79013 0,0.24159 0.274231,0.58495 0.599849,0.75107 0.269824,0.13765 0.62145,0.17729 0.820491,0.0925 z m -2.313973,-8.59952 c 0.313305,-0.45067 0.563741,-0.82548 0.556522,-0.83291 -0.01576,-0.0162 -1.61473,-0.10509 -1.631526,-0.0906 -0.0065,0.005 0.06987,0.31685 0.169595,0.6918 0.244492,0.91927 0.283855,1.05201 0.311817,1.05156 0.01314,-2.2e-4 0.280284,-0.36914 0.593592,-0.81979 z m -0.526066,0.30317 c -0.01754,-0.03 -0.272771,-0.93957 -0.272771,-0.9721 0,-0.0206 0.78974,0.004 0.907364,0.0283 0.07272,0.015 0.05416,0.0505 -0.242258,0.46524 -0.37165,0.51986 -0.36962,0.51738 -0.392335,0.47854 z m 21.870648,3.92907 c 4.58e-4,-0.0791 0.903103,-3.8688 0.927223,-3.89292 0.03293,-0.0329 0.28497,0.14866 0.431546,0.31089 0.275312,0.30474 1.532955,2.04501 1.663878,2.3024 0.105111,0.20665 0.220994,0.53219 0.220994,0.62083 0,0.1015 -0.08647,0.16039 -0.431576,0.29352 -0.616715,0.23794 -0.997956,0.2994 -2.21291,0.35673 -0.24241,0.0119 -0.476448,0.0281 -0.520081,0.037 -0.0492,0.0106 -0.07924,-7.4e-4 -0.07908,-0.0285 z m 1.871939,-0.26956 c 0.39631,-0.0697 0.786358,-0.18838 0.825197,-0.25122 0.04546,-0.0735 -0.398351,-0.73744 -1.339446,-2.00363 -0.322624,-0.43408 -0.432014,-0.55844 -0.46213,-0.52542 -0.03533,0.0387 -0.684262,2.7391 -0.684262,2.84738 0,0.069 1.151168,0.0224 1.660641,-0.0671 z m -1.400086,-0.16856 c 0.01128,-0.0357 0.132799,-0.54063 0.269949,-1.12194 0.137154,-0.58132 0.253347,-1.06091 0.258205,-1.06577 0.01247,-0.0119 0.879273,1.16795 1.181581,1.60916 0.138662,0.20237 0.239981,0.37869 0.225151,0.39181 -0.09499,0.0841 -0.793487,0.18895 -1.520114,0.22821 -0.412606,0.0223 -0.434277,0.0202 -0.414772,-0.0415 z m -17.9974,-1.21312 c -0.02167,-0.0405 -0.102139,-0.92479 -0.178842,-1.96517 -0.137047,-1.85884 -0.138315,-1.89311 -0.07324,-1.98073 0.05252,-0.0707 0.302725,-0.17485 1.208711,-0.50304 0.628371,-0.22763 1.173452,-0.4101 1.211295,-0.40549 0.04307,0.005 0.116747,0.0914 0.196944,0.23032 0.282777,0.48978 0.610329,0.71445 1.079308,0.74033 0.332557,0.0183 0.376307,0.007 1.460741,-0.3991 0.387534,-0.14491 0.72171,-0.26347 0.742613,-0.26347 0.0209,0 0.02951,0.0222 0.01911,0.0492 -0.02837,0.0739 -0.507145,0.72384 -0.885867,1.20249 -0.184129,0.23271 -0.400985,0.55005 -0.481904,0.70519 -0.179211,0.34359 -0.163284,0.32554 -0.219362,0.24885 -0.04304,-0.0589 -0.09117,-0.0377 -0.678387,0.29877 -0.960464,0.55027 -1.257461,0.73464 -2.271644,1.41011 -1.144435,0.76222 -1.079159,0.72572 -1.129476,0.6317 z m 0.644916,-0.52189 c 0.72065,-0.49906 1.473336,-0.97114 2.235765,-1.40227 1.02972,-0.58229 1.034277,-0.58519 1.179088,-0.75342 0.158583,-0.18422 0.852656,-1.05595 0.888713,-1.1162 0.03334,-0.0557 -0.03784,-0.0356 -0.647916,0.18351 -0.756531,0.27165 -0.972774,0.31789 -1.270835,0.27176 -0.501082,-0.0776 -0.882443,-0.33972 -1.088763,-0.74844 -0.05902,-0.11689 -0.117331,-0.21258 -0.129591,-0.21258 -0.01221,0 -0.333327,0.11358 -0.713503,0.25242 -0.380176,0.13882 -0.788639,0.28184 -0.907695,0.31782 -0.119056,0.036 -0.237232,0.0905 -0.262613,0.12101 -0.0382,0.046 -0.02725,0.3267 0.06362,1.63027 0.06037,0.86607 0.101383,1.62623 0.09113,1.68926 -0.01181,0.0722 -0.004,0.11463 0.02088,0.11463 0.02173,0 0.265509,-0.15649 0.541714,-0.34776 z m -0.372089,-0.96508 c -0.03426,-0.48999 -0.08712,-1.11887 -0.117477,-1.3975 -0.04957,-0.455 -0.04969,-0.51212 -0.0012,-0.56062 0.04718,-0.0472 1.295571,-0.51838 1.487747,-0.56156 0.05534,-0.0119 0.09792,0.0244 0.186776,0.16153 0.201636,0.31118 0.530256,0.54067 0.989867,0.69126 0.280272,0.0918 0.662356,0.0571 1.12904,-0.10256 0.202156,-0.0691 0.372073,-0.12127 0.377595,-0.1157 0.0056,0.005 -0.108667,0.16398 -0.25374,0.35214 -0.204115,0.26471 -0.303451,0.3622 -0.439171,0.43097 -0.09646,0.0488 -0.857105,0.50936 -1.690312,1.02331 -0.833207,0.51393 -1.535605,0.94236 -1.560884,0.95206 -0.03606,0.0138 -0.05937,-0.17426 -0.108242,-0.87325 z m 12.732985,0.38194 c -0.207045,-0.0214 -0.385341,-0.0478 -0.396213,-0.0589 -0.02457,-0.0249 0.388341,-1.26688 0.437611,-1.31616 0.06674,-0.0667 0.127973,0.0587 0.36396,0.74567 l 0.233166,0.67876 -0.131038,-0.005 c -0.07207,-0.003 -0.300439,-0.0228 -0.507484,-0.044 z M 15.01523,266.41126 c -0.196369,-0.0269 -0.366752,-0.0823 -0.421531,-0.13708 -0.0755,-0.0755 -0.06861,-0.22251 0.03569,-0.76321 0.110577,-0.5732 0.151162,-0.73188 0.187214,-0.73188 0.06008,0 0.533593,1.41465 0.533593,1.5941 0,0.0649 -0.07588,0.0735 -0.334967,0.0381 z m 16.038981,11.34555 c 0.336712,-0.38433 0.508346,-0.47989 0.850466,-0.47351 0.211996,0.004 0.33885,0.0387 0.899125,0.24682 0.61783,0.22941 0.668147,0.24221 0.952015,0.24208 0.273518,-1.5e-4 0.322819,-0.0119 0.564157,-0.12963 0.393906,-0.19282 0.602047,-0.34776 1.719953,-1.2804 0.0054,-0.004 -0.335632,-0.24444 -0.757893,-0.53314 -1.46645,-1.00265 -2.242339,-1.62053 -2.607267,-2.07635 -0.730055,-0.91189 -0.91212,-2.19367 -0.39625,-2.7897 0.07827,-0.0905 0.167864,-0.20582 0.199105,-0.25642 0.200083,-0.32408 0.477409,-0.45374 0.881891,-0.41229 0.385085,0.0394 0.649212,0.21155 0.771122,0.50246 0.02574,0.0614 0.06139,0.33178 0.07924,0.60081 0.01931,0.29101 0.0546,0.54221 0.08716,0.6201 0.06492,0.15539 1.06623,1.16878 1.486233,1.50417 0.54622,0.4362 1.323056,0.8908 1.412575,0.82665 0.433088,-0.31038 0.477515,-0.33133 0.702293,-0.33133 0.1818,0 0.264051,0.0218 0.469295,0.12445 0.431209,0.21573 0.604201,0.49017 0.625244,0.99195 0.01509,0.35978 0.04627,0.41587 0.34293,0.61688 0.121258,0.0821 0.363264,0.25504 0.5378,0.3842 0.663015,0.4906 1.33167,0.94841 1.359808,0.93103 0.01609,-0.009 0.0713,-0.15593 0.122692,-0.3244 0.131674,-0.43172 0.46446,-1.07523 0.917216,-1.77368 0.08226,-0.12685 0.175069,-0.31659 0.206239,-0.42156 0.03117,-0.10495 0.181728,-0.42161 0.334577,-0.70367 0.152847,-0.28204 0.437909,-0.81763 0.633473,-1.19017 0.195566,-0.37256 0.480281,-0.8803 0.632706,-1.12832 0.27563,-0.44851 1.405777,-2.20286 1.672584,-2.59639 0.08213,-0.12114 0.126778,-0.21917 0.108256,-0.23769 -0.05924,-0.0593 -4.08176,-2.53149 -4.0959,-2.51736 -0.0077,0.008 0.135935,0.19327 0.319314,0.41223 0.881146,1.05216 1.463295,1.99012 1.702389,2.74291 0.126234,0.39742 0.157247,0.90981 0.07457,1.23166 -0.143672,0.55923 -0.799396,1.32355 -1.356515,1.58115 -0.268888,0.12432 -0.967536,0.25517 -2.666657,0.49944 -0.814502,0.11703 -1.655448,0.25213 -1.868769,0.30006 -0.213323,0.0479 -0.50686,0.1027 -0.652307,0.12154 -0.204409,0.0265 -0.336442,0.0718 -0.581553,0.19944 -0.410438,0.21367 -0.627654,0.24095 -0.905567,0.1137 -0.233665,-0.10694 -0.413269,-0.26078 -0.55579,-0.47594 -0.123289,-0.18613 -0.133335,-0.30318 -0.05468,-0.63681 0.07045,-0.29885 0.1621,-0.46773 0.38592,-0.71119 0.103639,-0.11278 0.21691,-0.24842 0.251704,-0.30153 0.06301,-0.0962 0.06284,-0.0969 -0.04055,-0.17045 -0.05709,-0.0406 -0.249823,-0.21391 -0.428284,-0.38504 -0.348428,-0.33414 -0.48263,-0.41069 -1.10355,-0.62962 -0.297519,-0.10495 -0.376357,-0.11822 -0.705194,-0.11875 -0.333738,-5.7e-4 -0.39282,0.009 -0.599418,0.10216 -0.153571,0.0689 -0.304806,0.10734 -0.458377,0.1165 -0.19787,0.0119 -0.255443,3.2e-4 -0.421317,-0.0851 -0.287826,-0.14819 -0.337687,-0.23689 -0.33239,-0.59127 0.006,-0.39705 0.08639,-0.73498 0.348673,-1.46458 0.260807,-0.72546 0.386042,-1.21784 0.578457,-2.27425 0.07771,-0.42664 0.151759,-0.82709 0.164556,-0.88989 0.02995,-0.14692 -0.04665,-0.26717 -0.229624,-0.36051 -0.238046,-0.12141 -0.613374,-0.25086 -0.642647,-0.22159 -0.04455,0.0446 -0.261626,1.5693 -0.489753,3.44009 -0.115447,0.94672 -0.219971,1.76144 -0.232287,1.81051 -0.01234,0.0491 -0.0742,0.15708 -0.137511,0.24003 -0.238717,0.31273 -0.240233,0.28285 0.04299,0.84697 0.294502,0.58657 0.280463,0.6419 -0.344354,1.35701 -0.177219,0.20283 -0.337023,0.40773 -0.355123,0.45533 -0.04393,0.11557 -0.01022,0.25157 0.09812,0.39611 0.212368,0.28331 0.58959,1.16336 0.570247,1.33038 -0.0096,0.0821 -0.02953,0.0953 -0.169461,0.11079 l -0.158668,0.0177 0.01075,0.14545 c 0.01114,0.15153 -0.05367,0.26003 -0.155371,0.26003 -0.109078,0 -0.497555,-0.15312 -0.898885,-0.35429 -0.230253,-0.11543 -0.425415,-0.20986 -0.433692,-0.20986 -0.0082,0 -0.103213,0.17849 -0.210961,0.39666 -0.27849,0.56388 -0.448307,0.80903 -0.822026,1.18674 -0.228818,0.23125 -0.32818,0.35702 -0.32818,0.4154 0,0.1096 0.07205,0.13351 0.236549,0.0786 0.205266,-0.0685 0.531141,-0.056 0.718617,0.0276 0.339545,0.1514 0.726527,0.67287 1.387149,1.86919 l 0.23776,0.43057 0.120104,-0.23664 c 0.06605,-0.13016 0.237426,-0.37056 0.380828,-0.53424 z m -0.753855,-0.12923 c -0.474762,-0.8578 -0.908874,-1.41704 -1.209768,-1.55847 -0.08443,-0.0397 -0.255338,-0.0922 -0.379806,-0.11689 -0.12447,-0.0245 -0.232071,-0.0487 -0.239118,-0.0536 -0.007,-0.005 0.08246,-0.12472 0.198904,-0.26643 0.26407,-0.3212 0.470493,-0.64067 0.627778,-0.97159 l 0.121537,-0.25569 0.343276,0.17223 c 0.364207,0.18276 0.763041,0.32153 0.924021,0.32153 0.118379,0 0.265195,-0.10986 0.339933,-0.25441 0.03048,-0.0589 0.117424,-0.16614 0.193224,-0.23824 0.176201,-0.16762 0.17883,-0.27337 0.01774,-0.71325 -0.179222,-0.48938 -0.22537,-0.58801 -0.394889,-0.84391 -0.08523,-0.1287 -0.154963,-0.26668 -0.154963,-0.3067 0,-0.0401 0.0833,-0.17041 0.185114,-0.28977 0.64229,-0.75299 0.71831,-0.8859 0.687871,-1.20268 -0.01234,-0.12803 -0.07214,-0.2881 -0.198477,-0.53108 -0.09948,-0.19133 -0.180831,-0.37495 -0.180782,-0.40803 3.6e-5,-0.033 0.07718,-0.176 0.171415,-0.31759 l 0.171326,-0.25743 0.0192,0.1431 c 0.04505,0.33579 0.300795,0.59012 0.67844,0.67462 0.106491,0.0239 0.19363,0.0495 0.19363,0.0569 0,0.008 -0.101356,0.1381 -0.225232,0.2903 -0.258369,0.31742 -0.361909,0.55849 -0.412227,0.95978 -0.130467,1.04045 0.420563,2.1115 1.5563,3.02506 0.353782,0.28456 1.414572,1.0497 2.00106,1.44333 0.180569,0.12114 0.323371,0.23404 0.317338,0.25078 -0.04365,0.12114 -1.126722,0.89895 -1.551194,1.11406 -0.275068,0.13938 -0.423353,0.11928 -1.217444,-0.16465 -0.834081,-0.29828 -1.042121,-0.32975 -1.367246,-0.20682 -0.216777,0.082 -0.514905,0.34559 -0.847784,0.74968 l -0.139971,0.16991 z m 9.908006,-1.51301 c -0.475126,-0.33949 -0.891632,-0.65058 -0.925571,-0.69129 -0.04312,-0.0517 -0.0617,-0.13545 -0.0617,-0.27797 0,-0.33929 -0.113483,-0.63597 -0.334682,-0.87488 -0.45548,-0.49197 -1.05308,-0.60113 -1.553519,-0.28375 -0.08762,0.0556 -0.186532,0.10084 -0.219795,0.10057 -0.03326,-2.8e-4 -0.223371,-0.0929 -0.422459,-0.20576 l -0.361974,-0.20529 0.247175,-0.097 c 0.135948,-0.0533 0.257161,-0.11318 0.269363,-0.13287 0.04749,-0.0768 0.320297,-0.16811 0.507121,-0.16966 0.106663,-8.9e-4 0.257397,-0.0167 0.334968,-0.0352 0.327215,-0.0777 1.798811,-0.32605 2.715006,-0.45805 1.326439,-0.19107 1.737186,-0.26671 2.013683,-0.37078 0.499382,-0.18797 0.983559,-0.6112 1.368794,-1.1965 0.287102,-0.43621 0.320194,-0.55216 0.317602,-1.11283 -0.0019,-0.41079 -0.01521,-0.51949 -0.09715,-0.79335 -0.136058,-0.45469 -0.457553,-1.08128 -0.87315,-1.7018 -0.198266,-0.29601 -0.353885,-0.54481 -0.345818,-0.55287 0.0081,-0.008 0.643297,0.37485 1.411626,0.85093 l 1.396963,0.86561 -0.395958,0.60403 c -1.261098,1.92383 -2.012943,3.19966 -2.662366,4.51788 -0.286623,0.58178 -0.657535,1.29418 -0.824253,1.58312 -0.16672,0.28893 -0.370997,0.68943 -0.453949,0.89 -0.08295,0.20057 -0.158757,0.36473 -0.168454,0.36479 -0.0097,7e-5 -0.40637,-0.27763 -0.881495,-0.61713 z m -5.472828,-3.88848 c -0.107791,-0.11053 -0.213563,-0.23557 -0.235051,-0.27772 -0.02148,-0.0422 -0.05485,-0.2975 -0.07414,-0.56744 -0.04802,-0.67189 -0.128874,-0.87467 -0.441336,-1.10681 -0.13798,-0.10256 -0.138746,-0.10429 -0.03525,-0.0805 0.641317,0.14676 1.173579,0.45492 1.500854,0.86895 l 0.137412,0.17384 -0.181551,0.21804 c -0.204081,0.2451 -0.378552,0.58834 -0.407048,0.80079 -0.01048,0.078 -0.03001,0.14859 -0.04345,0.1569 -0.01344,0.008 -0.112634,-0.0754 -0.220422,-0.18597 z m -3.147727,-3.55075 c 0.01194,-0.0776 0.136648,-1.03318 0.277132,-2.12355 0.140484,-1.09037 0.264857,-1.99192 0.276384,-2.00343 0.02579,-0.0259 0.37853,0.11822 0.449988,0.18377 0.04574,0.0419 0.04469,0.0888 -0.0088,0.3911 -0.03336,0.1889 -0.100865,0.57353 -0.150018,0.85473 -0.119308,0.68262 -0.281631,1.29005 -0.559888,2.09524 -0.233731,0.67635 -0.326496,0.8724 -0.2849,0.60214 z m -1.604788,-5.38241 c 0,-0.0366 -0.423857,-0.32307 -0.445728,-0.3012 -0.0094,0.009 0.04052,0.13175 0.111042,0.27177 l 0.128211,0.25459 0.10324,-0.0988 c 0.05679,-0.0544 0.10324,-0.11118 0.10324,-0.12631 z m -11.212619,0.11517 0.193928,-0.0243 -0.272594,-0.2756 c -0.170379,-0.17225 -0.284815,-0.31984 -0.305183,-0.3936 -0.04039,-0.14626 0.0017,-0.34788 0.122559,-0.58626 0.04935,-0.0974 0.0822,-0.18458 0.073,-0.19379 -0.03901,-0.039 -0.268711,0.12127 -0.4838,0.33761 -0.201497,0.20264 -0.823341,1.05851 -0.791916,1.08993 0.06313,0.0632 1.072621,0.0947 1.463997,0.0459 z m -1.068362,-0.26021 c 0.231184,-0.36546 0.378875,-0.55176 0.40589,-0.51198 0.04477,0.066 0.274613,0.51624 0.274613,0.53804 0,0.0106 -0.159456,0.0186 -0.354349,0.0186 -0.276965,0 -0.348193,-0.009 -0.326154,-0.0446 z m -5.181743,-0.52701 c -0.0069,-0.12194 -0.01261,-0.0313 -0.01274,0.20136 -7.1e-5,0.23271 0.0056,0.3325 0.01261,0.22175 0.007,-0.11079 0.007,-0.30115 1.4e-4,-0.42311 z m -6.2567354,17.03748 c -0.2384992,-0.11915 -0.523769,-0.39915 -0.6489455,-0.63689 -0.063329,-0.12021 -0.08221,-0.21272 -0.082303,-0.4029 -1.406e-4,-0.27646 0.050127,-0.40094 0.2583764,-0.64001 0.070123,-0.0805 0.1871644,-0.21825 0.2600826,-0.3061 0.1982328,-0.23884 0.4663892,-0.35796 0.8016019,-0.35612 0.2148632,10e-4 0.2978189,0.0187 0.4409513,0.0934 0.3954373,0.20635 0.5948802,0.53912 0.5976877,0.99721 0.00159,0.2569 -0.00929,0.30255 -0.121683,0.51128 -0.1482168,0.27525 -0.5213436,0.66111 -0.7431341,0.76847 -0.2374815,0.11504 -0.4949437,0.10535 -0.7626437,-0.0284 z m 1.0820208,-0.5282 c 0.2589389,-0.13215 0.3953245,-0.38444 0.3943891,-0.7297 -0.00101,-0.3752 -0.1829186,-0.67531 -0.5072806,-0.83694 -0.6240848,-0.311 -1.3762599,0.20093 -1.2245296,0.83341 0.053352,0.22239 0.3756477,0.5805 0.6418324,0.71315 0.2276524,0.11344 0.497332,0.12127 0.6955887,0.02 z m 39.6678116,-0.68261 c -0.398023,-0.10747 -0.796099,-0.50004 -0.9928,-0.97922 l -0.110325,-0.26875 -0.121869,0.0827 c -0.252798,0.17155 -0.682629,0.1619 -1.029773,-0.0231 -0.35704,-0.1903 -0.581194,-0.53804 -0.646537,-1.003 -0.04471,-0.31819 -0.004,-0.46681 0.219403,-0.80082 0.396518,-0.59285 0.603708,-0.74698 1.007164,-0.74923 0.448224,-0.003 0.653097,0.16521 0.966229,0.79102 0.111851,0.22353 0.211499,0.43024 0.221435,0.45932 0.01499,0.0439 0.0535,0.0356 0.226177,-0.0491 0.150335,-0.0736 0.278831,-0.10681 0.462841,-0.11915 0.224109,-0.0151 0.277626,-0.007 0.445142,0.076 0.254685,0.12459 0.492886,0.38766 0.64933,0.71708 0.116084,0.24446 0.128742,0.3001 0.130148,0.57227 0.002,0.3804 -0.08636,0.57668 -0.42751,0.95005 -0.343583,0.37603 -0.579432,0.45724 -0.999065,0.34399 z m 0.921483,-0.57234 c 0.246206,-0.12591 0.36552,-0.40955 0.339979,-0.80807 -0.02035,-0.31763 -0.116256,-0.5307 -0.351438,-0.7808 -0.411224,-0.43732 -0.865677,-0.48097 -1.230074,-0.11822 -0.129285,0.1287 -0.17389,0.2066 -0.223664,0.39049 -0.09458,0.3494 -0.02502,0.53309 0.378867,1.00045 0.310851,0.35971 0.750815,0.48773 1.08633,0.3161 z m -1.926917,-1.12317 c 0.313013,-0.18344 0.404297,-0.44205 0.299987,-0.84989 -0.181172,-0.70838 -0.625825,-1.12729 -1.10092,-1.03719 -0.255804,0.0486 -0.38314,0.13483 -0.494219,0.33498 -0.157704,0.28419 -0.21366,0.51453 -0.167047,0.68763 0.04721,0.17533 0.429394,0.75513 0.53914,0.81792 0.326034,0.18651 0.655857,0.20315 0.923059,0.0466 z m -37.3813491,1.46319 c -0.4631504,-0.16673 -0.7855739,-0.42817 -0.95066,-0.77085 -0.080034,-0.16613 -0.097084,-0.2498 -0.098424,-0.48302 -0.00186,-0.31513 0.04076,-0.42628 0.2582318,-0.67434 0.070123,-0.08 0.1768218,-0.20715 0.2371007,-0.28256 0.060278,-0.0754 0.1951466,-0.18452 0.2997083,-0.24243 0.1665893,-0.0922 0.225012,-0.10521 0.47219,-0.10521 0.2467627,0 0.3057188,0.0133 0.4709084,0.10455 0.2358455,0.13069 0.43102,0.34973 0.5786026,0.64951 0.1055753,0.21445 0.1140673,0.25799 0.1140673,0.58503 0,0.387 -0.053949,0.54493 -0.2471331,0.72357 -0.052436,0.0484 -0.1409167,0.15401 -0.1966366,0.23449 -0.1238325,0.17887 -0.405959,0.33024 -0.6121328,0.32839 -0.078614,-6.9e-4 -0.2252324,-0.0309 -0.3258228,-0.0671 z m 0.9032684,-0.54741 c 0.3582623,-0.18527 0.4526499,-0.72903 0.2106213,-1.21337 -0.1248673,-0.24989 -0.3391719,-0.45632 -0.6218637,-0.59902 l -0.2080486,-0.10508 -0.2350322,0.0632 c -0.2917447,0.0783 -0.4518552,0.19749 -0.5579427,0.41524 -0.097163,0.19944 -0.1056948,0.48678 -0.02042,0.68778 0.1088393,0.25655 0.5341062,0.64182 0.8273462,0.74953 0.1760576,0.0646 0.4819555,0.0656 0.6053382,0.001 z m 40.5335997,-9.45797 c -0.349071,-0.18503 -0.640204,-0.34134 -0.64696,-0.34738 -0.01207,-0.0106 0.632007,-1.20152 0.722061,-1.33509 0.04335,-0.0643 0.04742,-0.0628 0.08344,0.032 0.149206,0.39243 0.510907,1.83725 0.48637,1.9428 -0.0065,0.0279 -0.243832,-0.0797 -0.64492,-0.29235 z m -13.322754,-1.37467 c -0.04794,-0.15151 -0.222829,-0.70072 -0.388654,-1.22049 -0.180118,-0.56457 -0.317206,-1.06141 -0.340506,-1.2341 -0.09566,-0.70897 -0.181939,-0.87398 -0.736626,-1.40877 -0.902005,-0.86964 -1.019119,-0.94138 -1.346757,-0.82501 -0.201131,0.0714 -0.259923,0.0722 -0.516678,0.007 -0.111214,-0.0283 -0.244623,-0.0601 -0.296459,-0.0704 -0.168175,-0.034 -0.300772,-0.18116 -0.381438,-0.42355 -0.175,-0.52588 -0.771499,-0.83263 -1.313005,-0.67521 -0.108189,0.0315 -0.231485,0.0572 -0.273985,0.0572 -0.04592,0 -0.308411,-0.1836 -0.64688,-0.45246 -1.015761,-0.80686 -1.154066,-0.88741 -1.523587,-0.88741 -0.355484,0 -0.623866,0.16653 -0.978029,0.60686 -0.334122,0.41542 -0.422882,0.58554 -0.441772,0.8467 -0.02124,0.29371 0.0531,0.45396 0.381424,0.82214 0.154935,0.17374 0.281826,0.32404 0.281978,0.33399 1.41e-4,0.009 -0.285325,0.0918 -0.634398,0.18189 -0.349071,0.0901 -0.634677,0.15828 -0.634677,0.15154 0,-0.007 0.06389,-0.0861 0.14196,-0.17628 0.252948,-0.29226 0.29858,-0.41331 0.298692,-0.79229 7e-5,-0.2869 -0.01261,-0.36027 -0.08805,-0.51126 -0.104766,-0.20955 -0.305525,-0.32794 -0.609226,-0.35928 -0.3585,-0.037 -1.155658,0.29321 -1.526896,0.63251 -0.10454,0.0955 -0.206777,0.16813 -0.227205,0.16133 -0.02043,-0.007 0.03556,-0.0975 0.124416,-0.20164 0.269391,-0.31561 0.335399,-0.50813 0.262938,-0.76693 -0.08125,-0.29022 -0.380944,-0.46518 -0.932062,-0.54417 -0.271159,-0.0389 -0.480947,-0.0251 -1.146836,0.0752 -0.242412,0.0365 -0.829487,0.123 -1.304612,0.19207 -0.475127,0.0691 -1.251098,0.18877 -1.724383,0.26592 -0.473285,0.0771 -0.863236,0.13612 -0.866558,0.13109 -0.0033,-0.005 -0.04154,-0.0682 -0.08493,-0.14043 -0.11615,-0.19317 -0.368523,-0.39965 -0.5509,-0.45071 -0.343849,-0.0963 -0.873328,0.049 -1.361974,0.37353 -0.25576,0.16989 -0.94081,0.82032 -1.293918,1.22853 -0.09951,0.11504 -0.186966,0.20232 -0.194342,0.19393 -0.0074,-0.008 -0.200664,-0.39432 -0.42953,-0.85763 -0.356441,-0.72159 -0.446232,-0.87459 -0.626074,-1.06685 -0.331988,-0.35489 -0.760051,-0.52234 -1.329749,-0.52015 -0.378061,10e-4 -0.507014,0.0614 -0.604158,0.28105 -0.038,0.0858 -0.0827,0.15616 -0.09934,0.15616 -0.01664,0 -0.03647,-0.36097 -0.04406,-0.80215 -0.01314,-0.75995 -0.01877,-0.81644 -0.108189,-1.07338 -0.0519,-0.14916 -0.143666,-0.3513 -0.203904,-0.44919 l -0.109529,-0.17801 0.235127,-0.26166 c 0.483012,-0.53755 1.646439,-1.51711 2.638435,-2.22144 3.42084,-2.42887 7.287774,-3.80237 11.7825,-4.18503 1.12154,-0.0955 3.193646,-0.021 4.566144,0.16412 0.967663,0.13056 3.019654,0.58717 3.949099,0.87886 1.819924,0.57113 3.853509,1.5354 5.50053,2.60818 3.236861,2.10832 5.832758,4.93654 7.641955,8.32587 0.45243,0.84759 1.019341,2.08666 0.990019,2.16385 -0.006,0.0159 -0.14582,-0.0277 -0.310661,-0.0969 -0.249378,-0.10455 -0.344117,-0.12605 -0.564156,-0.12817 -0.227772,-0.003 -0.287368,0.0106 -0.429701,0.0946 -0.170432,0.10018 -0.551124,0.49644 -0.825823,0.85956 -0.161606,0.21363 -0.436947,0.72429 -0.436947,0.81037 0,0.0268 -0.013,0.0488 -0.02893,0.0488 -0.04507,0 -0.840329,-0.46194 -1.3746,-0.79846 -1.125835,-0.70913 -3.454639,-2.33955 -4.018021,-2.81305 -0.36293,-0.30504 -0.636668,-0.58352 -1.024999,-1.04279 -0.262086,-0.30996 -0.279487,-0.34024 -0.233039,-0.40549 0.335762,-0.47169 0.40846,-0.91742 0.228215,-1.39918 -0.141486,-0.37814 -0.591391,-0.6624 -1.094521,-0.69152 -0.508784,-0.0295 -0.831038,0.12923 -1.221981,0.60179 -0.41517,0.50182 -0.583387,0.84285 -0.649224,1.31622 -0.0756,0.54359 0.0946,1.07827 0.58814,1.84754 0.155523,0.24241 0.293358,0.45851 0.306302,0.48023 0.01314,0.0222 -0.114199,0.18956 -0.290047,0.38118 -0.17247,0.18793 -0.342115,0.40024 -0.376991,0.47178 -0.117198,0.24042 -0.07056,0.56305 0.16765,1.15996 0.04298,0.10774 0.03455,0.13401 -0.17474,0.54654 l -0.219892,0.43339 -0.373729,0.24683 c -0.205554,0.13575 -0.386501,0.25176 -0.402107,0.25783 -0.0156,0.007 -0.06759,-0.11292 -0.115527,-0.26445 z m 9.644166,-1.10793 c -0.02134,-0.0884 -0.840029,-1.63187 -1.045298,-1.97069 -0.839821,-1.38622 -1.677051,-2.44145 -2.92443,-3.68586 -1.646757,-1.64285 -3.144336,-2.71157 -5.384247,-3.84234 -0.399791,-0.20182 -0.851997,-0.41666 -1.004904,-0.47742 -0.493574,-0.1961 -1.92342,-0.67238 -2.215594,-0.738 -0.697623,-0.15667 -0.934643,-0.21357 -1.011917,-0.24286 -0.04556,-0.0172 -0.39225,-0.0893 -0.770412,-0.15995 -0.378161,-0.0707 -0.743756,-0.14366 -0.812431,-0.16218 -0.06868,-0.0184 -0.2038,-0.0243 -0.300276,-0.0133 -0.101223,0.0119 -0.234825,0.003 -0.315882,-0.0226 -0.14633,-0.0451 -0.503688,-0.082 -1.339307,-0.13805 -0.60067,-0.0403 -1.700051,-0.017 -2.344776,0.0498 -0.261805,0.0271 -0.610876,0.0592 -0.775715,0.0712 -0.164841,0.0119 -0.415101,0.0454 -0.556136,0.0742 -0.141035,0.0287 -0.271252,0.043 -0.289371,0.0317 -0.01811,-0.0106 -0.156597,0.0106 -0.307729,0.0495 -0.151133,0.0385 -0.41759,0.087 -0.592125,0.108 -0.817258,0.0983 -2.717671,0.68425 -3.966728,1.223 -0.370845,0.15995 -1.585893,0.77409 -2.380037,1.20296 -0.480385,0.25942 -1.0401,0.63328 -1.51168,1.00971 -0.177008,0.14129 -0.454899,0.34934 -0.617538,0.46233 -0.16264,0.11305 -0.432378,0.33441 -0.599417,0.49205 -0.16704,0.15764 -0.355277,0.32249 -0.418304,0.36633 -0.06302,0.0438 -0.114597,0.0947 -0.114597,0.11317 0,0.0184 0.161028,0.24795 0.35784,0.51009 0.357057,0.47556 0.358002,0.47646 0.431933,0.41037 0.689664,-0.61648 1.605995,-1.33972 2.231092,-1.76095 2.492087,-1.67934 5.344098,-2.72614 8.420942,-3.09081 1.20528,-0.14285 2.71358,-0.15866 3.808059,-0.0399 1.919698,0.20828 2.852139,0.40704 4.425105,0.94321 1.733669,0.59097 2.847674,1.12517 4.248807,2.03746 0.633115,0.41221 0.855939,0.52744 1.255905,0.64944 0.518133,0.15804 0.763142,0.38125 0.901992,0.82173 0.05107,0.16203 0.138299,0.26886 0.691441,0.84696 1.534074,1.60328 1.921448,2.07718 2.63316,3.22126 0.176084,0.28305 0.363239,0.55527 0.41591,0.60493 0.05268,0.0496 0.373431,0.27188 0.712806,0.49383 0.922706,0.60347 1.098441,0.69453 1.063855,0.55123 z m -29.397133,-8.48494 c 0.09114,-0.20847 0.182561,-0.41369 0.20317,-0.45606 0.05701,-0.11716 0.211182,-0.1645 0.461119,-0.14153 0.120581,0.0106 0.321767,0.009 0.447089,-0.004 l 0.22786,-0.0242 -0.377714,-0.32863 c -0.207743,-0.18068 -0.377714,-0.34162 -0.377714,-0.35757 0,-0.0159 0.09551,-0.23139 0.212235,-0.47873 0.116734,-0.24735 0.205602,-0.45635 0.197497,-0.46446 -0.01798,-0.018 -0.378398,0.1611 -0.697962,0.34678 -0.129431,0.0752 -0.261036,0.13674 -0.292442,0.13674 -0.03141,0 -0.239742,-0.1287 -0.462966,-0.28603 -0.223227,-0.15731 -0.412627,-0.27927 -0.420891,-0.27101 -0.0082,0.008 0.02717,0.2292 0.07876,0.49097 0.05159,0.26177 0.08384,0.50184 0.07169,0.53351 -0.01221,0.0317 -0.205399,0.19526 -0.429435,0.36354 -0.224035,0.16828 -0.407339,0.32125 -0.407339,0.33993 0,0.0207 0.200345,0.0297 0.514658,0.023 0.442929,-0.009 0.520327,-0.003 0.555342,0.0462 0.02237,0.0314 0.096,0.24931 0.163604,0.48406 0.0676,0.23477 0.133002,0.42684 0.145327,0.42684 0.01234,0 0.09698,-0.17057 0.188108,-0.37904 z m 4.425541,-2.37122 c 0.211144,-0.27944 0.313927,-0.38783 0.3677,-0.38777 0.04105,4e-5 0.262764,0.0476 0.4927,0.10575 0.229935,0.0581 0.439613,0.10575 0.46595,0.10575 0.02695,0 -0.06722,-0.16523 -0.215319,-0.37781 -0.170644,-0.24495 -0.263208,-0.41161 -0.263208,-0.47392 0,-0.0655 0.07004,-0.18199 0.220374,-0.36629 0.305145,-0.37414 0.354249,-0.44048 0.338018,-0.45671 -0.01997,-0.0199 -0.580625,0.10721 -0.765569,0.17364 -0.293336,0.10535 -0.289156,0.10761 -0.704973,-0.38019 -0.142913,-0.16766 -0.273815,-0.30484 -0.290893,-0.30484 -0.01708,0 -0.03306,0.0595 -0.03553,0.13229 -0.0025,0.0727 -0.01437,0.30612 -0.02644,0.51867 l -0.02196,0.38645 -0.405487,0.17142 c -0.223018,0.0943 -0.461021,0.19506 -0.528896,0.22395 -0.16481,0.0702 -0.122479,0.0904 0.423117,0.20246 0.539947,0.11092 0.564024,0.13188 0.564463,0.49314 3.7e-4,0.30302 0.03566,0.62194 0.06883,0.62194 0.01327,0 0.155941,-0.17453 0.317125,-0.38785 z m 10.879659,-1.17045 c -0.03338,-0.25203 -0.04713,-0.4702 -0.03056,-0.48483 0.01657,-0.0146 0.232569,-0.11185 0.479989,-0.21614 0.247421,-0.10429 0.444601,-0.20529 0.438181,-0.22455 -0.0064,-0.0192 -0.244408,-0.0843 -0.52886,-0.14452 -0.284453,-0.0602 -0.526446,-0.11875 -0.537763,-0.13003 -0.01128,-0.0119 -0.07264,-0.2366 -0.13628,-0.50064 -0.06363,-0.26402 -0.123965,-0.48832 -0.134077,-0.49842 -0.02014,-0.0202 -0.414921,0.62591 -0.414921,0.679 0,0.0181 -0.0343,0.0697 -0.07623,0.11464 -0.07372,0.0791 -0.08911,0.0811 -0.467194,0.0588 -0.215027,-0.0133 -0.458395,-0.0325 -0.540814,-0.0439 -0.09687,-0.0134 -0.149854,-0.008 -0.149854,0.0174 0,0.021 0.166602,0.18345 0.370229,0.36098 0.203625,0.17754 0.370227,0.34933 0.370227,0.38177 0,0.0324 -0.08685,0.24771 -0.193017,0.47841 -0.106159,0.23069 -0.187704,0.42477 -0.181211,0.43126 0.0065,0.007 0.20567,-0.0759 0.442617,-0.18309 0.236946,-0.10721 0.468451,-0.1949 0.514454,-0.1949 0.05571,0 0.204232,0.10801 0.444711,0.32356 0.218034,0.19538 0.367007,0.30573 0.376063,0.27857 0.0082,-0.0247 -0.01234,-0.2512 -0.0457,-0.50321 z m -6.156546,0.0589 c 0.409242,-0.33327 0.480016,-0.35489 0.70225,-0.2146 0.209346,0.13216 0.646215,0.34535 0.666368,0.3252 0.01008,-0.0106 -0.05699,-0.20855 -0.148933,-0.44119 -0.114572,-0.28987 -0.159774,-0.44849 -0.143678,-0.50411 0.01402,-0.0484 0.178756,-0.19483 0.40879,-0.36324 l 0.385304,-0.28207 -0.573571,-0.009 -0.573571,-0.009 -0.209981,-0.42514 c -0.115486,-0.23383 -0.228812,-0.44084 -0.251827,-0.46002 -0.03086,-0.0257 -0.06163,0.0329 -0.117225,0.22322 -0.04145,0.14196 -0.106318,0.36425 -0.144135,0.494 -0.04471,0.15342 -0.09003,0.24191 -0.129604,0.25307 -0.03346,0.009 -0.286941,0.052 -0.56329,0.0946 -0.276348,0.0426 -0.502452,0.0877 -0.502452,0.10018 0,0.0119 0.214203,0.12936 0.476007,0.25988 0.261805,0.13043 0.476009,0.25806 0.476009,0.28349 0,0.0482 -0.12569,0.75861 -0.158736,0.89728 -0.01035,0.0437 -0.0068,0.0789 0.0082,0.0784 0.01491,-4.9e-4 0.19224,-0.13536 0.394056,-0.2997 z m -16.8861621,9.23675 c -0.3781607,-0.0245 -0.725295,-0.046 -0.7714074,-0.0478 -0.078588,-0.003 -0.082343,-0.0119 -0.059972,-0.15284 0.028686,-0.18007 0.1210859,-0.3523 0.7864787,-1.46585 0.3508228,-0.5871 0.5681354,-0.91241 0.6889586,-1.03135 0.09707,-0.0955 0.1902052,-0.17372 0.2069662,-0.17372 0.01676,0 0.03178,0.10707 0.03336,0.23799 0.0016,0.13096 0.02142,0.7894 0.04408,1.46332 l 0.04118,1.2253 -0.14104,-0.005 c -0.07757,-0.003 -0.4504437,-0.0254 -0.8286057,-0.0499 z M 24.20041,262.18682 c 0.47742,-0.28439 0.493265,-0.29125 0.370563,-0.16056 -0.058,0.0618 -0.200796,0.15791 -0.317337,0.21362 -0.372791,0.17823 -0.398499,0.1526 -0.05323,-0.0531 z"
       id="path53"
       inkscape:connector-curvature="0" />
  </g>
</svg>
