<?xml version="1.0" encoding="UTF-8" standalone="no"?>
<!-- Generator: Adobe Illustrator 23.0.3, SVG Export Plug-In . SVG Version: 6.00 Build 0)  -->

<svg
   xmlns:dc="http://purl.org/dc/elements/1.1/"
   xmlns:cc="http://creativecommons.org/ns#"
   xmlns:rdf="http://www.w3.org/1999/02/22-rdf-syntax-ns#"
   xmlns:svg="http://www.w3.org/2000/svg"
   xmlns="http://www.w3.org/2000/svg"
   xmlns:sodipodi="http://sodipodi.sourceforge.net/DTD/sodipodi-0.dtd"
   xmlns:inkscape="http://www.inkscape.org/namespaces/inkscape"
   version="1.1"
   id="Ebene_1"
   x="0px"
   y="0px"
   viewBox="0 0 1952.722 200"
   xml:space="preserve"
   sodipodi:docname="Logo HdJ 160x80_negativ_2.svg"
   width="1952.722"
   height="200"
   inkscape:version="0.92.4 (5da689c313, 2019-01-14)"><metadata
   id="metadata34"><rdf:RDF><cc:Work
       rdf:about=""><dc:format>image/svg+xml</dc:format><dc:type
         rdf:resource="http://purl.org/dc/dcmitype/StillImage" /><dc:title></dc:title></cc:Work></rdf:RDF></metadata><defs
   id="defs32" /><sodipodi:namedview
   pagecolor="#ffffff"
   bordercolor="#666666"
   borderopacity="1"
   objecttolerance="10"
   gridtolerance="10"
   guidetolerance="10"
   inkscape:pageopacity="0"
   inkscape:pageshadow="2"
   inkscape:window-width="1920"
   inkscape:window-height="1017"
   id="namedview30"
   showgrid="false"
   inkscape:pagecheckerboard="true"
   inkscape:zoom="0.55503376"
   inkscape:cx="699.11514"
   inkscape:cy="570.35319"
   inkscape:window-x="1912"
   inkscape:window-y="-8"
   inkscape:window-maximized="1"
   inkscape:current-layer="Ebene_1" />
<style
   type="text/css"
   id="style23">
	.st0{fill:#FFFFFF;}
</style>
<path
   class="st0"
   d="M 137.21395,134.63675 V 11.730729 C 137.21395,5.154412 132.05954,2e-6 125.52766,2e-6 H 118.507 c -6.57632,0 -11.9529,5.15441 -11.9529,11.730727 V 44.56788 c 0,7.02066 -5.64319,12.2195 -12.88603,12.2195 H 51.05532 c -6.30971,0 -11.68629,5.15441 -11.68629,11.73073 v 7.73161 c 0,6.57632 5.37658,11.73073 11.9529,11.73073 h 44.25683 c 6.57632,0 11.01977,4.93224 11.01977,11.50855 v 35.19218 c 0,6.57632 5.15441,11.73073 11.6863,11.73073 h 7.02066 c 6.53188,-0.0444 11.90846,-5.24328 11.90846,-11.77516 z M 31.14863,135.08109 V 12.175074 c 0,-6.576316 -5.15441,-11.730726 -11.68629,-11.730726 H 11.9529 C 5.37658,0.444348 0,5.598758 0,12.175074 V 135.08109 c 0,6.57632 5.15441,11.73073 11.68629,11.73073 h 7.50944 c 6.57632,0 11.9529,-5.15441 11.9529,-11.73073 z m 261.80849,-0.22217 V 12.175074 c 0,-6.576316 -5.64319,-11.730726 -12.17507,-11.730726 H 226.2164 c -40.25772,0 -70.47323,32.614972 -70.47323,72.961562 v 61.45301 c 0,6.57632 5.37658,11.73073 11.9529,11.73073 h 7.50944 c 6.57632,0 11.46412,-5.15441 11.46412,-11.73073 V 74.33904 c 0,-23.23928 18.48478,-42.70162 39.81337,-42.70162 h 22.92824 c 7.02066,0 13.1082,5.64319 13.1082,12.88602 0,7.02066 -5.86536,12.21951 -13.1082,12.21951 h -26.21639 c -6.30971,0 -11.6863,5.15441 -11.6863,11.73072 v 7.73162 c 0,6.57632 5.37659,11.73073 11.9529,11.73073 h 27.86048 c 6.57631,0 11.01977,3.51033 11.01977,11.50855 v 35.41435 c 0,6.57632 4.93224,11.73073 11.46412,11.73073 h 7.50944 c 6.48745,0 11.64186,-5.15441 11.64186,-11.73073 z M 448.21151,73.62808 c 0,0 0,-33.05932 0,-61.453006 0,-6.576316 -5.37658,-11.730726 -11.9529,-11.730726 h -7.50944 c -6.57632,0 -11.24195,5.15441 -11.24195,11.730726 V 72.69496 c 0,23.23928 -16.8407,42.70162 -38.16929,42.70162 -21.3286,0 -37.68052,-19.46234 -37.68052,-42.70162 V 12.175074 c 0,-6.576316 -4.66563,-11.730726 -11.24195,-11.730726 h -7.50944 c -6.57632,0 -11.9529,5.15441 -11.9529,11.730726 0,28.393686 0,61.453006 0,61.453006 0,40.34659 27.41613,72.96157 67.67385,72.96157 40.30216,0 69.58454,-32.61498 69.58454,-72.96157 z m 155.47656,29.54899 c 0,-28.12708 -19.90669,-44.79004 -46.61186,-44.79004 h -39.10243 c -8.66474,0 -15.6854,-6.79849 -15.6854,-14.08576 0,-7.02066 7.02066,-12.66385 15.90758,-12.66385 h 29.99333 8.66474 c 8.66474,0 16.17419,5.64319 16.17419,12.88602 l -0.22218,5.64319 c 0,6.57632 4.66563,11.73073 11.24195,11.73073 h 7.73162 c 6.53188,0 11.68629,-5.15441 11.68629,-11.73073 V 37.014 c 0,-20.173296 -18.04044,-36.569652 -42.39058,-36.569652 h -12.88603 -41.45745 c -24.35015,0 -42.39058,23.461452 -42.39058,43.634752 0,20.17329 14.04132,44.56787 37.68051,44.56787 h 47.76717 c 8.66474,0 15.90757,7.02066 15.90757,14.30793 0,7.02066 -7.24283,12.21951 -15.90757,12.21951 h -10.75317 c -6.57632,0 -11.68629,5.15441 -11.68629,11.73072 v 7.95379 c 0,6.57632 5.15441,11.73073 11.68629,11.73073 38.88025,0.22217 -21.06199,0.22217 22.26172,0.22217 24.12797,0 42.39058,-23.46145 42.39058,-43.63475 z M 809.509,73.40591 c 0,-40.34659 -30.21551,-72.961562 -70.47323,-72.961562 h -55.05443 c -6.57632,0 -11.9529,5.15441 -11.9529,11.730726 V 134.85892 c 0,6.57632 5.15441,11.73073 11.68629,11.73073 h 52.6994 c 40.30216,0 73.09487,-32.83715 73.09487,-73.18374 z m -33.72584,0.22217 c 0,23.23928 -17.55165,41.50189 -38.88025,41.50189 -7.95379,0 -5.15441,0 -15.90757,0 -16.39636,0 -17.81827,-11.24194 -17.81827,-18.52921 -0.22217,-36.83626 -0.22217,-27.90491 0,-46.6563 0,-7.28727 1.42191,-18.30704 17.81827,-18.30704 h 15.90757 c 21.3286,0.0444 38.88025,18.79582 38.88025,41.99066 z m 188.98023,61.23084 v -7.95379 c 0,-6.57631 -5.37659,-11.73072 -11.9529,-11.73072 h -64.16352 c -8.66474,0 -15.90758,-6.35415 -15.90758,-13.37481 0,-7.02066 7.24284,-13.81915 15.90758,-13.81915 h 38.88025 c 6.57631,0 11.68629,-5.15441 11.68629,-11.73073 v -7.73161 c 0,-6.57632 -5.15441,-11.73073 -11.68629,-11.73073 h -38.88025 c -8.66474,0 -15.90758,-5.37658 -15.90758,-12.44168 0,-7.02066 7.24284,-12.66385 15.90758,-12.66385 h 64.16352 c 6.57631,0 11.73072,-5.15441 11.73072,-11.730726 v -7.731615 c 0,-6.576316 -5.15441,-11.730727 -11.73072,-11.730727 h -55.01 c -40.25772,0 -70.47323,33.059318 -70.47323,73.628078 0,39.63564 30.43768,72.47279 73.05043,72.47279 h 52.69941 c 6.26527,0 11.68629,-5.15441 11.68629,-11.73073 z m 154.98781,0.22217 -0.2222,-34.48122 c 0,-11.73073 -5.8654,-18.52922 -16.6185,-23.9058 -8.176,-4.22128 -11.4641,-9.86448 -0.9332,-15.01889 11.4642,-5.64319 17.8183,-12.66385 17.8183,-24.61675 0,-20.173291 -18.0404,-36.569648 -42.3906,-36.569648 h -82.87045 -0.22217 c -6.30971,0 -11.6863,5.154411 -11.6863,11.508554 v 0.222173 122.906021 c 0,6.57632 5.15441,11.73073 11.6863,11.73073 h 7.50942 c 6.5763,0 11.9529,-5.15441 11.9529,-11.73073 V 44.0791 c 0,-7.50945 7.0207,-12.44168 14.0413,-12.44168 h 38.1693 c 8.6648,0 15.9076,5.64319 15.9076,12.66385 0,7.02066 -7.2428,12.44168 -15.9076,12.44168 h -15.4632 c -6.5763,0 -11.6863,5.15441 -11.6863,11.73072 v 7.73162 c 0,6.57632 5.1544,11.73073 11.6863,11.73073 h 22.4839 c 8.6647,0 15.9076,6.79848 15.9076,13.81915 v 33.32592 c 0,6.57632 5.1544,11.73073 11.7307,11.73073 h 7.465 c 6.4875,0 11.6419,-5.15441 11.6419,-11.73073 z"
   id="path25"
   inkscape:connector-curvature="0"
   style="fill:#ffffff;stroke-width:4.44345713" />
<path
   class="st0"
   d="M 1173.3393,188.22484 V 65.31882 c 0,-6.57632 -5.1544,-11.73073 -11.7308,-11.73073 h -7.0206 c -6.5763,0 -11.9529,5.15441 -11.9529,11.73073 v 91.002 c 0,7.50944 -7.0207,12.17507 -14.0858,12.17507 h -45.0122 c -8.6647,0 -15.952,-5.37658 -15.952,-12.44168 v -13.81915 c 0,-6.57632 -5.1544,-11.73073 -11.7307,-11.73073 h -7.7317 c -6.5763,0 -11.7307,5.15441 -11.7307,11.73073 v 14.08576 c 0,24.39458 17.3739,43.63475 41.7241,43.63475 h 83.2704 0.2221 c 6.3542,0 11.7308,-5.15441 11.7308,-11.50856 z M 1330.4599,126.994 c 0,0 0,-33.05932 0,-61.45301 0,-6.57631 -5.3766,-11.73072 -11.9529,-11.73072 h -7.5094 c -6.5764,0 -11.242,5.15441 -11.242,11.73072 v 60.51989 c 0,23.23928 -16.8851,42.70162 -38.2137,42.70162 -21.3286,0 -37.7694,-19.46234 -37.7694,-42.70162 V 65.54099 c 0,-6.57631 -4.6656,-11.73072 -11.2419,-11.73072 h -7.5095 c -6.5763,0 -11.9529,5.15441 -11.9529,11.73072 0,28.39369 0,61.45301 0,61.45301 0,40.34659 27.4606,72.96157 67.7627,72.96157 40.3022,0 69.629,-32.61498 69.629,-72.96157 z m 155.521,61.23084 v -53.23261 c 0,-6.57632 -5.1544,-11.73073 -11.7307,-11.73073 h -7.5095 c -6.5763,0 -11.7307,5.15441 -11.7307,11.73073 v 15.24105 c 0,7.28727 -1.4219,18.30705 -17.8183,18.30705 h -15.952 c -21.3286,0 -38.9247,-18.30705 -38.9247,-41.50189 0,-23.19485 17.5961,-41.99067 38.9247,-41.99067 h 53.0105 c 6.5763,0 11.7307,-5.15441 11.7307,-11.73073 v -7.73161 c 0,-6.57632 -5.1544,-11.73073 -11.7307,-11.73073 h -55.1433 c -40.3466,0 -70.6066,32.61497 -70.6066,72.96156 0,40.34659 32.8372,73.18374 73.1838,73.18374 h 52.5216 c 6.6208,-0.0444 11.7752,-5.19884 11.7752,-11.77516 z m 155.7432,0 v -7.95379 c 0,-6.57631 -5.3766,-11.73072 -11.9529,-11.73072 h -64.2524 c -8.6648,0 -15.952,-6.30971 -15.952,-13.37481 0,-7.02066 7.2872,-13.81915 15.952,-13.81915 h 38.9247 c 6.5763,0 11.7307,-5.15441 11.7307,-11.73073 v -7.73161 c 0,-6.57632 -5.1544,-11.73073 -11.7307,-11.73073 h -38.9247 c -8.6648,0 -15.952,-5.37658 -15.952,-12.44168 0,-7.02066 7.2872,-12.66385 15.952,-12.66385 h 64.2524 c 6.5763,0 11.7307,-5.15441 11.7307,-11.73073 v -7.73161 c 0,-6.57632 -5.1544,-11.73073 -11.7307,-11.73073 h -55.1433 c -40.3466,0 -70.6066,33.05932 -70.6066,73.62808 0,39.63564 30.4822,72.47279 73.1838,72.47279 h 52.7882 c 6.3098,0 11.7308,-5.15441 11.7308,-11.73073 z m 155.2543,0 c 0,-28.39369 0,-61.45301 0,-61.45301 0,-40.34659 -30.2599,-72.96156 -70.6065,-72.96156 h -54.6545 c -6.5763,0 -12.1751,5.15441 -12.1751,11.73072 v 122.68385 c 0,6.57632 5.1544,11.73073 11.7307,11.73073 h 7.5095 c 6.5763,0 11.9529,-5.15441 11.9529,-11.73073 0,-28.39369 0,-56.2986 0,-84.91446 0,-7.28727 1.1553,-18.30705 17.5961,-18.30705 h 17.8183 c 21.3285,0 40.1244,19.46235 40.1244,42.70163 v 60.51988 c 0,6.57632 4.71,11.73073 11.2863,11.73073 h 7.5095 c 6.4874,0 11.9084,-5.15441 11.9084,-11.73073 z m 155.7432,-61.45301 c 0,-40.34659 -30.2599,-72.96156 -70.6065,-72.96156 h -55.0989 c -6.5763,0 -11.9529,5.15441 -11.9529,11.73072 v 122.68385 c 0,6.57632 5.1544,11.73073 11.7307,11.73073 h 52.7883 c 40.3022,0 73.1393,-32.83715 73.1393,-73.18374 z m -33.7703,0.22217 c 0,23.23928 -17.5961,41.50189 -38.9246,41.50189 -7.9538,0 -5.1545,0 -15.9521,0 -16.4407,0 -17.8182,-11.24194 -17.8182,-18.52921 -0.2222,-36.83626 -0.2222,-27.90491 0,-46.6563 0,-7.28727 1.4219,-18.30705 17.8182,-18.30705 h 15.9521 c 21.3285,0 38.9246,18.79583 38.9246,41.99067 z"
   id="path27"
   inkscape:connector-curvature="0"
   style="fill:#ffffff;stroke-width:4.44345713" />
</svg>