<?xml version="1.0" encoding="UTF-8" standalone="no"?>
<!-- Created with Inkscape (http://www.inkscape.org/) -->

<svg
   xmlns:dc="http://purl.org/dc/elements/1.1/"
   xmlns:cc="http://creativecommons.org/ns#"
   xmlns:rdf="http://www.w3.org/1999/02/22-rdf-syntax-ns#"
   xmlns:svg="http://www.w3.org/2000/svg"
   xmlns="http://www.w3.org/2000/svg"
   xmlns:sodipodi="http://sodipodi.sourceforge.net/DTD/sodipodi-0.dtd"
   xmlns:inkscape="http://www.inkscape.org/namespaces/inkscape"
   width="61px"
   height="61px"
   viewBox="0 0 61 61"
   version="1.1"
   id="SVGRoot"
   inkscape:version="0.92.4 (5da689c313, 2019-01-14)"
   sodipodi:docname="Zeichnung.svg">
  <defs
     id="defs3875" />
  <sodipodi:namedview
     id="base"
     pagecolor="#ffffff"
     bordercolor="#666666"
     borderopacity="1.0"
     inkscape:pageopacity="0.0"
     inkscape:pageshadow="2"
     inkscape:zoom="5.937625"
     inkscape:cx="18.304702"
     inkscape:cy="28.847381"
     inkscape:document-units="px"
     inkscape:current-layer="layer1"
     showgrid="false"
     inkscape:window-width="1920"
     inkscape:window-height="1017"
     inkscape:window-x="1912"
     inkscape:window-y="-8"
     inkscape:window-maximized="1"
     inkscape:grid-bbox="true" />
  <metadata
     id="metadata3878">
    <rdf:RDF>
      <cc:Work
         rdf:about="">
        <dc:format>image/svg+xml</dc:format>
        <dc:type
           rdf:resource="http://purl.org/dc/dcmitype/StillImage" />
        <dc:title></dc:title>
      </cc:Work>
    </rdf:RDF>
  </metadata>
  <g
     inkscape:label="Ebene 1"
     inkscape:groupmode="layer"
     id="layer1">
    <g
       id="g3945"
       transform="translate(-87.159998,-44.190001)">
	<circle
   id="circle3923"
   r="30.51"
   cy="74.68"
   cx="117.67" />

	<g
   id="g3943">
		<path
   id="path3925"
   d="m 134.77,58.22 c -0.59,-1.14 -5.08,-3.69 -5.55,-3.83 -0.47,-0.14 -0.52,0.8 -0.52,0.8 l -0.42,0.03 c -0.39,0.47 -1.23,4.73 -1.23,4.73 -0.19,0.22 -0.55,0.03 -0.55,0.03 -2.44,0.63 -5.2,3.61 -5.2,3.61 l 0.39,-2.58 0.38,-0.39 2.31,-1.91 c 3.86,-3.37 2.56,-3.39 2.56,-3.39 -2.27,0.64 -3.56,1.92 -4.42,2.35 -0.86,0.43 -0.09,-0.77 -0.09,-0.77 1.38,-1.09 3.7,-3.23 4.33,-3.75 0.63,-0.52 0.2,-0.8 0.2,-0.8 -2.23,0.13 -3.63,1.16 -4.69,1.94 -1.06,0.78 -2.05,3.33 -2.03,4.22 0.02,0.89 -0.24,0.9 -0.24,0.9 -0.64,-0.5 -1.86,-0.05 -1.86,-0.05 -2.55,1.61 -3.08,3.55 -3.11,3.61 -0.03,0.06 -0.02,1.59 0.2,2.02 0.22,0.43 0.59,0.28 0.73,0.22 0.14,-0.06 0.77,-0.94 0.77,-0.94 0,0 -0.59,-0.31 -0.56,-0.47 0.03,-0.16 1.03,-1.31 1.03,-1.31 0,0 1.84,-1.53 1.75,-1.08 -0.09,0.45 -1.58,2.44 -2.66,3.72 -1.08,1.28 -1.7,1.45 -1.7,1.45 -0.59,-0.25 0,-2.52 0.19,-3.34 0.19,-0.82 1.38,-3.45 1.38,-3.45 1.88,-3.06 2.73,-3.3 2.73,-3.3 l -0.03,0.25 c 0,0 -0.25,0.03 -0.25,0.13 0,0.1 0.33,0.38 0.33,0.38 0.13,-0.03 1.06,-0.7 1.06,-0.7 V 55.5 c -1,-1.33 -2.11,-0.5 -2.11,-0.5 -2.08,2.03 -3.91,5.95 -3.91,5.95 0,0 0.17,-0.61 0.19,-0.86 0.02,-0.25 0.05,-0.33 -0.34,-0.8 -0.39,-0.47 -2.05,0.2 -2.05,0.2 0,0 -1.78,0.89 -1.86,2.23 -0.08,1.34 0.48,1.78 0.48,1.78 0,0 0.83,-1.14 0.98,-1.36 0.15,-0.22 1.06,-0.69 1.06,-0.69 0,0 -2.19,3.56 -2.83,3.94 -0.64,0.38 -0.66,-0.72 -0.66,-0.72 -0.34,-1.78 0.23,-3.75 0.23,-3.75 0.89,-3.75 3.11,-5 3.11,-5 0,0 -0.03,1.48 0.36,1.95 0.39,0.47 0.5,0.02 0.5,0.02 0,0 1.09,-0.81 0.47,-2.39 -0.62,-1.58 -1.81,-1.19 -1.81,-1.19 -2.67,0.94 -4.34,7.2 -4.34,7.2 0,0 0.09,-4.36 -0.2,-4.78 -0.29,-0.42 -1.05,-0.39 -1.05,-0.39 0,0 0.22,3.81 0.13,4.98 -0.09,1.17 -0.55,1.97 -0.55,1.97 0,0 -0.03,-3.8 -0.16,-5.48 -0.13,-1.68 -0.42,-2.69 -0.42,-2.69 l -1.06,-0.41 -0.08,3.08 -2.66,1.25 c 0,0 2.14,-4.59 1.36,-6 -0.78,-1.41 -2.27,-1.72 -2.27,-1.72 0,0 -3.53,-0.81 -4.16,-0.77 -0.63,0.04 -0.5,-2 -0.5,-2 l -1.17,-0.5 -0.63,1.79 c 0.17,1.13 0.04,1.92 0,2.08 -0.04,0.17 -0.29,1.83 -0.29,1.83 l -0.75,13.5 c 0,0 0.44,1.5 0.71,2.02 0.27,0.52 0.39,0.25 0.39,0.25 l 0.25,-1.11 c -0.03,-1.7 0.59,-5.88 0.59,-5.88 l 0.94,-8.61 c 0,0 2.06,0 3.23,0.03 1.17,0.03 1.84,0.44 1.84,0.44 1.52,0.31 -0.56,2.75 -0.56,2.75 -1.78,2.8 -5.34,5.56 -5.34,5.56 l -0.13,0.69 0.81,2.6 c 0,0 2.13,-1.88 2.53,-2.19 0.4,-0.31 2.82,-1.8 2.82,-1.8 0,0 -0.64,0.66 -0.61,2.46 0.02,1.8 1.11,2.62 1.11,2.62 l 0.46,-0.79 c 0,0 -0.14,0.06 -0.26,-1.06 -0.12,-1.12 2.28,-4.29 2.28,-4.29 l 0.18,1.81 c -0.28,0.58 1.34,7.29 1.73,5.54 0.39,-1.75 1.28,-5.5 1.28,-5.5 l 0.14,-0.05 c -0.04,1.06 0.21,3.54 1.15,5.19 0.94,1.65 1.9,-0.19 1.9,-0.19 1.52,-2.23 3.15,-5.52 3.15,-5.52 -0.86,1.77 -0.78,3.97 -0.78,3.97 0,0 0.61,3.73 1.67,3.73 1.06,0 5,-6.53 5,-6.53 l -0.27,1.52 c -0.22,3.69 0.8,4.09 0.8,4.09 2.36,-3.58 6.45,-7.95 6.47,-8 0.02,-0.05 0.17,-0.02 0.17,-0.02 l -0.95,3.77 c -0.03,0.53 0.27,2.3 0.27,2.3 0.53,1.63 0.89,1.28 0.89,1.28 4.33,-3.55 5.89,-5.36 5.89,-5.36 0.46,-0.14 2.6,-3.61 2.01,-4.75 z m -6.77,5.73 -0.33,0.25 h -0.31 c 0,0 1.58,-4.27 1.81,-6.02 0,0 1.58,0.81 2.08,0.84 0.5,0.03 1.75,0.74 1.75,0.74 0,0 -1.96,2.21 -5,4.19 z"
   class="st0"
   inkscape:connector-curvature="0"
   style="fill:#ffffff" />

		<path
   id="path3927"
   d="m 118.38,48.43 c -0.22,-0.49 -0.56,-0.47 -0.56,-0.47 -2.64,-0.12 -7.02,1.33 -8.04,1.67 -1.01,0.34 -1.72,1.89 -1.73,1.96 -0.19,0.93 0.74,0.86 0.74,0.86 4.06,-0.12 10.65,-1.35 10.65,-1.35 0,0 0.86,0.07 0.81,-1.38 -0.05,-1.44 -1.87,-1.29 -1.87,-1.29 z m 0.15,1.58 c 0,0 -2.92,0.28 -5.53,0.31 0,0 1.88,-0.62 3.26,-0.61 1.38,0.01 2.27,0.18 2.27,0.18 z"
   class="st0"
   inkscape:connector-curvature="0"
   style="fill:#ffffff" />

		<path
   id="path3929"
   d="m 108.8,78.22 c -0.27,-1.73 -0.63,-6.02 -0.63,-6.02 0.16,-1.08 -0.11,-2.36 -0.11,-2.36 -0.75,-0.83 -1.05,-0.53 -1.05,-0.53 -0.13,0.06 -0.23,2.52 -0.23,2.52 0.28,0.98 0.58,5.03 0.58,5.03 -0.86,-2.16 -3.84,-6.22 -3.84,-6.22 l -0.73,-0.34 -0.3,0.47 v 0.42 l -0.41,0.55 -0.14,4.56 C 101.47,76 101.3,74.63 101.3,74.63 l 0.16,0.02 c 0.02,-0.53 -0.08,-0.44 -0.08,-0.44 l -0.34,-0.11 -1.88,-5.89 c 0,0 -0.44,-0.13 -0.55,-0.59 -0.11,-0.46 -0.92,-0.7 -0.92,-0.7 -0.78,0.64 -1.11,3.11 -1.11,3.25 0,0.14 -0.91,3.44 -0.92,3.95 -0.01,0.51 -0.81,3.31 -0.81,3.31 -0.22,2.25 0.42,2.92 0.45,2.89 0.97,-0.98 0.83,-1.89 0.83,-1.89 0.23,-0.11 3.81,-2.42 3.81,-2.42 0.09,0.81 1.53,2.89 1.53,2.89 -0.34,1.81 0.48,3.44 0.48,3.44 0.75,-0.38 1.69,-7.42 1.69,-7.42 0.36,0.3 2.45,3.59 3.72,5.92 1.27,2.33 1.38,2.08 1.38,2.08 0.47,-0.33 0.58,-2.31 0.58,-2.31 0,0 -0.26,-0.66 -0.52,-2.39 z m -9.76,-3.66 -1.89,0.64 c 0,-0.04 0,-0.55 0,-0.55 0,0 0.81,-1.93 0.85,-2.11 h 0.18 c 0,0 0.78,1.47 0.87,1.53 v 0.49 z"
   class="st0"
   inkscape:connector-curvature="0"
   style="fill:#ffffff" />

		<path
   id="path3931"
   d="m 115.55,73.98 c -0.86,-1.67 -4.41,-2.63 -4.41,-2.63 -0.06,-0.11 -0.19,-0.45 -0.19,-0.45 0,0 -0.2,-0.19 -0.56,-0.25 -0.36,-0.06 -0.39,0.36 -0.39,0.36 L 109.61,71 c 0,0 -0.3,-0.22 -0.47,-0.22 -0.17,0 -0.45,0.28 -0.45,0.28 v 2.72 l 0.47,0.34 c 0.59,0.86 0.95,3.83 0.95,3.83 l -0.53,0.34 c 0,0 -0.06,0.39 0.19,1.59 0.25,1.2 0.5,1.3 0.52,1.13 0.02,-0.17 2.98,-2.41 2.98,-2.41 0.43,-0.27 3.14,-2.94 2.28,-4.62 z m -3.99,3.1 c 0,0 -0.16,-0.47 -0.36,-2.59 0,0 2.16,0.09 2.75,0.72 0.01,-0.01 -1.4,1.21 -2.39,1.87 z"
   class="st0"
   inkscape:connector-curvature="0"
   style="fill:#ffffff" />

		<path
   id="path3933"
   d="m 126.95,75.45 c 0,-0.13 -0.25,-1.31 -1.25,-0.7 -1,0.61 -0.97,0.22 -0.97,0.22 1.41,-2.83 1.95,-5.11 -0.08,-5.92 -2.03,-0.81 -3.95,1.11 -3.95,1.11 -0.42,-0.17 -0.89,-0.48 -0.89,-0.48 -0.5,0.52 -0.95,2.78 -0.95,2.78 -1.34,4.02 -1.55,8.47 -1.55,8.47 l -0.31,0.91 0.63,2.06 c 0.34,-0.14 0.41,-0.44 0.41,-0.44 l 0.64,-2.23 0.3,0.75 0.17,0.13 c 1.5,-2.03 5.23,-4.33 5.23,-4.33 0,0 -0.03,0.09 -0.45,1.39 -0.42,1.3 -0.02,2.73 0.3,3.53 0.32,0.8 0.63,0.67 0.63,0.67 l 0.59,-0.77 c 0,0 -0.47,-2.3 0.03,-3.02 0.5,-0.72 1.47,-4 1.47,-4.13 z m -7.45,2.5 0.97,-5.3 c 0,0 2.82,-2.48 3.93,-1.25 1.11,1.23 -4.9,6.55 -4.9,6.55 z"
   class="st0"
   inkscape:connector-curvature="0"
   style="fill:#ffffff" />

		<path
   id="path3935"
   d="m 133.94,78.38 c -0.1,-0.33 -1.08,-3.31 -1.08,-3.31 l 0.63,-0.57 -0.44,-0.37 h -0.44 L 132.4,74 c -0.38,-0.48 -1.5,-4.04 -1.5,-4.04 -1.02,-1.73 -1.4,-0.5 -1.4,-0.5 -0.08,0.31 -1.92,5.98 -1.92,6.04 0,0.06 -0.63,0.54 -0.63,0.54 0.1,1.23 -0.33,1.9 -0.33,1.9 -0.21,1.57 0.33,2.95 0.33,2.95 0.49,-0.38 1.38,-3.19 1.38,-3.19 1.98,-1.04 2.83,-1.25 2.83,-1.25 1.17,1.42 2.17,3.71 2.17,3.71 l 0.6,-0.73 c 0.01,0.02 0.11,-0.71 0.01,-1.05 z m -4.44,-3.7 c 0,-0.46 0.39,-1.31 0.39,-1.31 l 0.39,1.04 z"
   class="st0"
   inkscape:connector-curvature="0"
   style="fill:#ffffff" />

		<path
   id="path3937"
   d="m 134.86,81.71 c 0,0 -0.61,-1.22 -0.54,-2.85 0.07,-1.63 -0.09,-4.43 -1.17,-7.8 0,0 -0.4,-1.26 -0.81,-1.86 l -0.35,-1.58 c 0,0 0.23,-1.79 0.67,-2.54 l 0.92,0.65 c 0,0 1.73,4.6 1.9,7.65 0,0 1.58,-7.85 1.92,-8.56 l 0.92,0.56 c 0,0 2.19,8.81 2.65,9.52 l 0.15,0.09 c 0,0 1.75,-8.49 3,-11.15 l 1.42,-4.5 h -0.88 c 0,0 -0.33,-0.67 0.08,-1.33 0.42,-0.67 1.5,-1.5 1.5,-1.5 0,0 1.46,0.42 0.96,1.69 0,0 -2.13,7.31 -2.71,8.52 -0.58,1.21 -2.5,9.33 -2.46,10.71 0.04,1.38 0.75,4.96 0.75,4.96 l -0.96,2.42 c 0,0 -0.21,-0.29 -0.54,-1.58 l -0.13,-1.58 c 0,0 -1.63,-5.21 -3.88,-11.65 0,0 -1.63,7.65 -1.38,9.15 -0.01,-0.04 -0.42,1.94 -1.03,2.56 z"
   class="st0"
   inkscape:connector-curvature="0"
   style="fill:#ffffff" />

		<path
   id="path3939"
   d="m 108.98,98.63 c 0,0 -0.23,-0.19 -0.56,-1.15 0,0 -2.65,-1.96 -7.92,-8.38 0,0 -0.48,-0.79 -0.33,-2.69 0,0 0.35,-0.35 1.38,1.06 0,0 4.46,6.46 6.29,7.65 l 0.19,0.08 0.52,-9.92 c 0,0 -3.03,0.04 -3.98,0.1 -0.95,0.06 -0.7,-2.25 -0.23,-2.33 0.48,-0.08 7.31,0.35 7.31,0.35 0,0 1.31,0.46 1.38,0.48 0.06,0.02 0.17,0.33 0.17,0.33 l 0.21,0.04 c 0,0 0.15,0.5 -0.6,0.71 -0.75,0.21 -2.35,0.15 -2.35,0.15 0,0 -0.35,-0.23 -0.27,1.98 l -0.85,10.98 -0.25,0.23 z"
   class="st0"
   inkscape:connector-curvature="0"
   style="fill:#ffffff" />

		<path
   id="path3941"
   d="m 110.18,95.46 -0.26,1 c 0.01,1.11 0.52,2.18 0.52,2.18 V 99 c 0,0 0.35,0.05 0.39,-0.02 0.04,-0.07 0.81,-2.5 0.81,-2.5 l 3.55,-1.66 c 0,0 1.06,4.08 1.67,4.97 0.61,0.89 0.63,0.7 0.63,0.7 v -0.23 l 0.36,-0.8 0.47,0.52 0.5,-1.45 1.06,-8.44 c 2.19,2.53 4.34,9.64 4.34,9.64 l 0.44,-0.55 c 0.2,-1.89 5,-10.69 5.13,-10.2 0.13,0.49 0.02,8.64 -0.27,10.69 -0.29,2.05 0.25,3.48 0.25,3.48 l 0.41,0.39 0.28,-0.23 0.73,-3.63 c 0.89,-4.73 4.41,-7.34 4.41,-7.34 0.17,-0.42 6.42,-3.83 6.42,-3.83 0.81,-1.36 -0.88,-1.19 -0.88,-1.19 l -3.92,1.92 c -3.67,1.64 -6.05,5.84 -6.05,5.84 0,0 0.2,-8.22 0,-9.05 -0.2,-0.83 -1.09,-0.8 -1.09,-0.8 0,0 -0.72,1.52 -0.72,1.59 0,0.07 -0.41,0.17 -0.41,0.17 0,0 -4.47,8.44 -4.45,7.81 0.02,-0.63 -4.03,-9.51 -4.03,-9.51 -0.93,-0.87 -1.05,-0.01 -1.05,-0.01 l -0.42,1.54 -0.51,0.56 c -0.66,1.79 -1.17,9.59 -1.17,9.59 l -0.82,-2.92 c 0,0 -0.07,-0.34 0.64,-1.04 0.71,-0.69 -0.88,-0.86 -0.88,-0.86 l -0.87,-6.4 -1.01,-0.54 -0.41,0.88 -0.27,0.24 -0.15,1.01 c -0.66,-0.31 -1.08,-0.18 -1.08,-0.18 -0.47,0.71 -1.44,4.41 -1.48,5.35 m 1.98,0.48 -0.08,-0.19 0.94,-2.36 0.52,1.69 c 0,0 0.09,0.4 0.09,0.41 0.01,0.01 -1.47,0.43 -1.47,0.45 z"
   class="st0"
   inkscape:connector-curvature="0"
   style="fill:#ffffff" />

	</g>

</g>
  </g>
  <style
     id="style3921"
     type="text/css">
	.st0{fill:#FFFFFF;}
</style>
</svg>
