<?xml version="1.0" encoding="utf-8"?>
<!-- Generator: Adobe Illustrator 23.0.3, SVG Export Plug-In . SVG Version: 6.00 Build 0)  -->
<svg version="1.1" id="Ebene_1" xmlns="http://www.w3.org/2000/svg" xmlns:xlink="http://www.w3.org/1999/xlink" x="0px" y="0px"
	 viewBox="0 0 240.94 155.91" style="enable-background:new 0 0 240.94 155.91;" xml:space="preserve">
<style type="text/css">
	.st0{fill:#FFFFFF;}
</style>
<g>
	<path class="st0" d="M134.77,58.22c-0.59-1.14-5.08-3.69-5.55-3.83s-0.52,0.8-0.52,0.8l-0.42,0.03c-0.39,0.47-1.23,4.73-1.23,4.73
		c-0.19,0.22-0.55,0.03-0.55,0.03c-2.44,0.63-5.2,3.61-5.2,3.61l0.39-2.58l0.38-0.39l2.31-1.91c3.86-3.37,2.56-3.39,2.56-3.39
		c-2.27,0.64-3.56,1.92-4.42,2.35c-0.86,0.43-0.09-0.77-0.09-0.77c1.38-1.09,3.7-3.23,4.33-3.75s0.2-0.8,0.2-0.8
		c-2.23,0.13-3.63,1.16-4.69,1.94s-2.05,3.33-2.03,4.22S120,59.41,120,59.41c-0.64-0.5-1.86-0.05-1.86-0.05
		c-2.55,1.61-3.08,3.55-3.11,3.61s-0.02,1.59,0.2,2.02s0.59,0.28,0.73,0.22s0.77-0.94,0.77-0.94s-0.59-0.31-0.56-0.47
		s1.03-1.31,1.03-1.31s1.84-1.53,1.75-1.08s-1.58,2.44-2.66,3.72s-1.7,1.45-1.7,1.45c-0.59-0.25,0-2.52,0.19-3.34
		s1.38-3.45,1.38-3.45c1.88-3.06,2.73-3.3,2.73-3.3l-0.03,0.25c0,0-0.25,0.03-0.25,0.13s0.33,0.38,0.33,0.38
		c0.13-0.03,1.06-0.7,1.06-0.7V55.5c-1-1.33-2.11-0.5-2.11-0.5c-2.08,2.03-3.91,5.95-3.91,5.95s0.17-0.61,0.19-0.86
		s0.05-0.33-0.34-0.8c-0.39-0.47-2.05,0.2-2.05,0.2s-1.78,0.89-1.86,2.23s0.48,1.78,0.48,1.78s0.83-1.14,0.98-1.36
		s1.06-0.69,1.06-0.69s-2.19,3.56-2.83,3.94s-0.66-0.72-0.66-0.72c-0.34-1.78,0.23-3.75,0.23-3.75c0.89-3.75,3.11-5,3.11-5
		s-0.03,1.48,0.36,1.95s0.5,0.02,0.5,0.02s1.09-0.81,0.47-2.39s-1.81-1.19-1.81-1.19c-2.67,0.94-4.34,7.2-4.34,7.2
		s0.09-4.36-0.2-4.78s-1.05-0.39-1.05-0.39s0.22,3.81,0.13,4.98s-0.55,1.97-0.55,1.97s-0.03-3.8-0.16-5.48s-0.42-2.69-0.42-2.69
		l-1.06-0.41l-0.08,3.08l-2.66,1.25c0,0,2.14-4.59,1.36-6c-0.78-1.41-2.27-1.72-2.27-1.72s-3.53-0.81-4.16-0.77
		c-0.63,0.04-0.5-2-0.5-2l-1.17-0.5l-0.63,1.79c0.17,1.13,0.04,1.92,0,2.08c-0.04,0.17-0.29,1.83-0.29,1.83l-0.75,13.5
		c0,0,0.44,1.5,0.71,2.02s0.39,0.25,0.39,0.25l0.25-1.11c-0.03-1.7,0.59-5.88,0.59-5.88l0.94-8.61c0,0,2.06,0,3.23,0.03
		s1.84,0.44,1.84,0.44c1.52,0.31-0.56,2.75-0.56,2.75c-1.78,2.8-5.34,5.56-5.34,5.56l-0.13,0.69l0.81,2.6c0,0,2.13-1.88,2.53-2.19
		c0.4-0.31,2.82-1.8,2.82-1.8s-0.64,0.66-0.61,2.46c0.02,1.8,1.11,2.62,1.11,2.62l0.46-0.79c0,0-0.14,0.06-0.26-1.06
		c-0.12-1.12,2.28-4.29,2.28-4.29l0.18,1.81c-0.28,0.58,1.34,7.29,1.73,5.54s1.28-5.5,1.28-5.5l0.14-0.05
		c-0.04,1.06,0.21,3.54,1.15,5.19s1.9-0.19,1.9-0.19c1.52-2.23,3.15-5.52,3.15-5.52c-0.86,1.77-0.78,3.97-0.78,3.97
		s0.61,3.73,1.67,3.73s5-6.53,5-6.53l-0.27,1.52c-0.22,3.69,0.8,4.09,0.8,4.09c2.36-3.58,6.45-7.95,6.47-8s0.17-0.02,0.17-0.02
		l-0.95,3.77c-0.03,0.53,0.27,2.3,0.27,2.3c0.53,1.63,0.89,1.28,0.89,1.28c4.33-3.55,5.89-5.36,5.89-5.36
		C133.22,62.83,135.36,59.36,134.77,58.22z M128,63.95l-0.33,0.25h-0.31c0,0,1.58-4.27,1.81-6.02c0,0,1.58,0.81,2.08,0.84
		s1.75,0.74,1.75,0.74S131.04,61.97,128,63.95z"/>
	<path class="st0" d="M118.38,48.43c-0.22-0.49-0.56-0.47-0.56-0.47c-2.64-0.12-7.02,1.33-8.04,1.67c-1.01,0.34-1.72,1.89-1.73,1.96
		c-0.19,0.93,0.74,0.86,0.74,0.86c4.06-0.12,10.65-1.35,10.65-1.35s0.86,0.07,0.81-1.38C120.2,48.28,118.38,48.43,118.38,48.43z
		 M118.53,50.01c0,0-2.92,0.28-5.53,0.31c0,0,1.88-0.62,3.26-0.61c1.38,0.01,2.27,0.18,2.27,0.18V50.01z"/>
	<path class="st0" d="M108.8,78.22c-0.27-1.73-0.63-6.02-0.63-6.02c0.16-1.08-0.11-2.36-0.11-2.36c-0.75-0.83-1.05-0.53-1.05-0.53
		c-0.13,0.06-0.23,2.52-0.23,2.52c0.28,0.98,0.58,5.03,0.58,5.03c-0.86-2.16-3.84-6.22-3.84-6.22l-0.73-0.34l-0.3,0.47v0.42
		l-0.41,0.55l-0.14,4.56c-0.47-0.3-0.64-1.67-0.64-1.67l0.16,0.02c0.02-0.53-0.08-0.44-0.08-0.44l-0.34-0.11l-1.88-5.89
		c0,0-0.44-0.13-0.55-0.59s-0.92-0.7-0.92-0.7c-0.78,0.64-1.11,3.11-1.11,3.25s-0.91,3.44-0.92,3.95s-0.81,3.31-0.81,3.31
		c-0.22,2.25,0.42,2.92,0.45,2.89c0.97-0.98,0.83-1.89,0.83-1.89c0.23-0.11,3.81-2.42,3.81-2.42c0.09,0.81,1.53,2.89,1.53,2.89
		c-0.34,1.81,0.48,3.44,0.48,3.44c0.75-0.38,1.69-7.42,1.69-7.42c0.36,0.3,2.45,3.59,3.72,5.92s1.38,2.08,1.38,2.08
		c0.47-0.33,0.58-2.31,0.58-2.31S109.06,79.95,108.8,78.22z M99.04,74.56l-1.89,0.64c0-0.04,0-0.55,0-0.55s0.81-1.93,0.85-2.11h0.18
		c0,0,0.78,1.47,0.87,1.53V74.56z"/>
	<path class="st0" d="M115.55,73.98c-0.86-1.67-4.41-2.63-4.41-2.63c-0.06-0.11-0.19-0.45-0.19-0.45s-0.2-0.19-0.56-0.25
		S110,71.01,110,71.01L109.61,71c0,0-0.3-0.22-0.47-0.22s-0.45,0.28-0.45,0.28v2.72l0.47,0.34c0.59,0.86,0.95,3.83,0.95,3.83
		l-0.53,0.34c0,0-0.06,0.39,0.19,1.59s0.5,1.3,0.52,1.13s2.98-2.41,2.98-2.41C113.7,78.33,116.41,75.66,115.55,73.98z M111.56,77.08
		c0,0-0.16-0.47-0.36-2.59c0,0,2.16,0.09,2.75,0.72C113.96,75.2,112.55,76.42,111.56,77.08z"/>
	<path class="st0" d="M126.95,75.45c0-0.13-0.25-1.31-1.25-0.7s-0.97,0.22-0.97,0.22c1.41-2.83,1.95-5.11-0.08-5.92
		s-3.95,1.11-3.95,1.11c-0.42-0.17-0.89-0.48-0.89-0.48c-0.5,0.52-0.95,2.78-0.95,2.78c-1.34,4.02-1.55,8.47-1.55,8.47L117,81.84
		l0.63,2.06c0.34-0.14,0.41-0.44,0.41-0.44l0.64-2.23l0.3,0.75l0.17,0.13c1.5-2.03,5.23-4.33,5.23-4.33s-0.03,0.09-0.45,1.39
		s-0.02,2.73,0.3,3.53s0.63,0.67,0.63,0.67l0.59-0.77c0,0-0.47-2.3,0.03-3.02S126.95,75.58,126.95,75.45z M119.5,77.95l0.97-5.3
		c0,0,2.82-2.48,3.93-1.25S119.5,77.95,119.5,77.95z"/>
	<path class="st0" d="M133.94,78.38c-0.1-0.33-1.08-3.31-1.08-3.31l0.63-0.57l-0.44-0.37h-0.44l-0.21-0.13
		c-0.38-0.48-1.5-4.04-1.5-4.04c-1.02-1.73-1.4-0.5-1.4-0.5c-0.08,0.31-1.92,5.98-1.92,6.04s-0.63,0.54-0.63,0.54
		c0.1,1.23-0.33,1.9-0.33,1.9c-0.21,1.57,0.33,2.95,0.33,2.95c0.49-0.38,1.38-3.19,1.38-3.19c1.98-1.04,2.83-1.25,2.83-1.25
		c1.17,1.42,2.17,3.71,2.17,3.71l0.6-0.73C133.94,79.45,134.04,78.72,133.94,78.38z M129.5,74.68c0-0.46,0.39-1.31,0.39-1.31
		l0.39,1.04L129.5,74.68z"/>
	<path class="st0" d="M134.86,81.71c0,0-0.61-1.22-0.54-2.85s-0.09-4.43-1.17-7.8c0,0-0.4-1.26-0.81-1.86l-0.35-1.58
		c0,0,0.23-1.79,0.67-2.54l0.92,0.65c0,0,1.73,4.6,1.9,7.65c0,0,1.58-7.85,1.92-8.56l0.92,0.56c0,0,2.19,8.81,2.65,9.52l0.15,0.09
		c0,0,1.75-8.49,3-11.15l1.42-4.5h-0.88c0,0-0.33-0.67,0.08-1.33c0.42-0.67,1.5-1.5,1.5-1.5s1.46,0.42,0.96,1.69
		c0,0-2.13,7.31-2.71,8.52c-0.58,1.21-2.5,9.33-2.46,10.71s0.75,4.96,0.75,4.96l-0.96,2.42c0,0-0.21-0.29-0.54-1.58l-0.13-1.58
		c0,0-1.63-5.21-3.88-11.65c0,0-1.63,7.65-1.38,9.15C135.88,79.11,135.47,81.09,134.86,81.71z"/>
	<path class="st0" d="M108.98,98.63c0,0-0.23-0.19-0.56-1.15c0,0-2.65-1.96-7.92-8.38c0,0-0.48-0.79-0.33-2.69
		c0,0,0.35-0.35,1.38,1.06c0,0,4.46,6.46,6.29,7.65l0.19,0.08l0.52-9.92c0,0-3.03,0.04-3.98,0.1s-0.7-2.25-0.23-2.33
		c0.48-0.08,7.31,0.35,7.31,0.35s1.31,0.46,1.38,0.48c0.06,0.02,0.17,0.33,0.17,0.33l0.21,0.04c0,0,0.15,0.5-0.6,0.71
		s-2.35,0.15-2.35,0.15s-0.35-0.23-0.27,1.98l-0.85,10.98l-0.25,0.23L108.98,98.63z"/>
	<path class="st0" d="M110.18,95.46l-0.26,1c0.01,1.11,0.52,2.18,0.52,2.18V99c0,0,0.35,0.05,0.39-0.02s0.81-2.5,0.81-2.5l3.55-1.66
		c0,0,1.06,4.08,1.67,4.97s0.63,0.7,0.63,0.7v-0.23l0.36-0.8l0.47,0.52l0.5-1.45l1.06-8.44c2.19,2.53,4.34,9.64,4.34,9.64l0.44-0.55
		c0.2-1.89,5-10.69,5.13-10.2s0.02,8.64-0.27,10.69s0.25,3.48,0.25,3.48l0.41,0.39l0.28-0.23l0.73-3.63
		c0.89-4.73,4.41-7.34,4.41-7.34c0.17-0.42,6.42-3.83,6.42-3.83c0.81-1.36-0.88-1.19-0.88-1.19l-3.92,1.92
		c-3.67,1.64-6.05,5.84-6.05,5.84s0.2-8.22,0-9.05s-1.09-0.8-1.09-0.8s-0.72,1.52-0.72,1.59s-0.41,0.17-0.41,0.17
		s-4.47,8.44-4.45,7.81s-4.03-9.51-4.03-9.51c-0.93-0.87-1.05-0.01-1.05-0.01L119,86.82l-0.51,0.56c-0.66,1.79-1.17,9.59-1.17,9.59
		l-0.82-2.92c0,0-0.07-0.34,0.64-1.04c0.71-0.69-0.88-0.86-0.88-0.86l-0.87-6.4l-1.01-0.54l-0.41,0.88l-0.27,0.24l-0.15,1.01
		c-0.66-0.31-1.08-0.18-1.08-0.18c-0.47,0.71-1.44,4.41-1.48,5.35 M112.97,92.99l-0.08-0.19l0.94-2.36l0.52,1.69
		c0,0,0.09,0.4,0.09,0.41C114.45,92.55,112.97,92.97,112.97,92.99z"/>
</g>
</svg>
